<svg xmlns="http://www.w3.org/2000/svg" width="1033.274" height="979.915" viewBox="0 0 1033.274 979.915"><g transform="translate(-6559.352 -5572)"><g transform="translate(6304.977 5453.695)"><circle cx="12.8" cy="12.8" r="12.8" transform="translate(354.9 280)" fill="#ec615b"/><rect transform="translate(394.9 315.4)" fill="#ec615b"/><circle cx="9.4" cy="9.4" r="9.4" transform="translate(564.4 784.2)" fill="#ec615b"/><circle cx="13.4" cy="13.4" r="13.4" transform="translate(1260.849 337.8)" fill="#ec615b"/><circle cx="5.6" cy="5.6" r="5.6" transform="translate(722.9 222.9)" fill="#ec615b"/><circle cx="9.1" cy="9.1" r="9.1" transform="translate(372.9 236.3)" fill="#5222d0"/><circle cx="5" cy="5" r="5" transform="translate(592.1 773)" fill="#5222d0"/><circle cx="5.9" cy="5.9" r="5.9" transform="translate(725.5 193.7)" fill="#5222d0"/><circle cx="3.4" cy="3.4" r="3.4" transform="translate(1134.3 181.35)" fill="#5222d0"/><path d="M1166.6,606.1c2.6-5.2,8.7,1.5,10.5,3.5s4,4.2,6.8,4.7c5.3,1,7.8-3.8,12-5.6,5.9-2.7,7.3,7.2,11.6,9.3,2,1,3.6.5,5.6-.1,2.3-.6,4-2,6.5-1.3a7.489,7.489,0,0,1,5.5,6.4c.2,1.9,3.2,1.9,3,0-.6-6.1-6.4-11-12.6-9.4-2.6.7-5.2,2.8-7.6.9-1.4-1.1-2.2-3.3-3.2-4.8-1.4-2.1-3-4.1-5.6-4.5-3-.5-5.3,1.2-7.6,2.9-2.4,1.8-3.9,3.4-7,2.9-3.1-.6-4.6-2.9-6.7-5.1-3.3-3.6-10.8-7.2-13.8-1.3-.8,1.7,1.8,3.2,2.6,1.5Z" fill="#ec615b"/><path d="M1189.7,627.3a16.215,16.215,0,0,1,12.9,3.6c2.5,2.1,3.3,4.7,5,7.3,3.5,5.3,7.9.7,12.5.2,7.1-.8,10.8,7.5,17.6,8.6,4,.6,7.6-1.1,9.1-4.9.7-1.8-2.2-2.6-2.9-.8-3.4,8.5-14.2-3.2-18.3-5.1a11.5,11.5,0,0,0-5.7-1.2c-2.6.2-7.3,4-9.7,1.8-1.4-1.3-2-4.2-3.4-5.8a16.406,16.406,0,0,0-4.7-4,19.361,19.361,0,0,0-13.3-2.5c-1.8.2-1,3.1.9,2.8Z" fill="#ec615b"/><path d="M290.6,459.9c-1.1-6.1-1.3-12.1,5.7-14.5,2.8-1,5.8-1.5,8.1-3.5,4.2-3.6,3.9-9.3,3.6-14.4-.2-3.7-1.1-9.4,4.5-7.9,1.8.5,3.7,1.2,5.5.3a4.776,4.776,0,0,0,2.4-3.3c.9-3,0-5.4,2.6-7.9a8.5,8.5,0,0,1,7.6-2.3c1.9.3,1.9-2.7,0-3a11.269,11.269,0,0,0-8.7,2.3c-3.2,2.5-3.3,5.1-4.3,8.7-1.5,5.1-5.2.9-8.9,1.6-2.3.4-3.3,2-3.8,4.1-.9,4,.4,8.3.3,12.3-.3,7.5-5.3,8.2-11,10.5-7.8,3.1-7.7,10.5-6.4,17.7.2,2,3.1,1.2,2.8-.7Z" fill="#ec615b"/><path d="M324,440.1c-6-7.7.9-15.3,9.2-14.6,2.5.2,4.6,0,5.9-2.3,1.8-3,1.2-7.1,2.6-10.3a19.7,19.7,0,0,1,12.4-11.2c1.8-.6,1-3.5-.8-2.9a23.149,23.149,0,0,0-12.3,9,20.872,20.872,0,0,0-3.4,8.3c-.2,1-.2,2.9-.5,3.8-.8,2.6-3.3,2.3-5.6,2.4-10.6.6-16.5,11.1-9.6,20,1.1,1.5,3.2-.6,2.1-2.2Z" fill="#ec615b"/><path d="M607.1,190.5c-1.7-5.6,3.8-11.4,9.4-8.4,6.1,3.2,4,12.1-2.7,12.8-1.9.2-1.9,3.2,0,3,9-.9,13-12.6,4.9-17.9-7.8-5.1-17.2,2.8-14.5,11.4.6,1.7,3.5.9,2.9-.9Z" fill="#5222d0"/><path d="M938.6,758.4c-4.1,4.9,1.5,9.1,5.8,10.8,3.3,1.3,5.5,3,6,6.7a40.2,40.2,0,0,0,.6,5,7.957,7.957,0,0,0,1.8,3.4c1.4,1.5,6.8,2.9,6,5.7a1.5,1.5,0,0,0,2.9.8c.7-2.5-.1-4.3-2.2-6-1.4-1.1-3.4-1.4-4.6-2.7-1.9-2-1.3-5.2-1.7-7.6a9.5,9.5,0,0,0-2.9-5.9c-1.9-1.6-12.9-4.2-9.6-8.2,1.3-1.4-.8-3.5-2.1-2Z" fill="#5222d0"/><path d="M951.8,748.4a4.89,4.89,0,0,0,1.7,5.8c1.7,1.4,4.4,1.5,5.9,3.1,1.6,1.7,1.4,4,1.8,6.2.5,2.8,1.5,4.9,4.1,6.3,1.9,1,4,1.3,5.8,2.4a13.1,13.1,0,0,1,5.7,9.5c.2,1.9,3.2,1.9,3,0-.8-7.1-4.9-11.5-11.4-14-5.1-1.9-3.6-6.2-5.3-10.2a6.25,6.25,0,0,0-2.3-3c-1.7-1.2-7.4-2.2-6.1-5.4.7-1.7-2.2-2.5-2.9-.7Z" fill="#5222d0"/><path d="M986.7,146.6c-3.1-4.1,3.1-7,6.2-7.4,2.3-.3,4.7-.1,7-.5a14.386,14.386,0,0,0,8.3-4.6c2-2.3,2.3-4.6,3.2-7.4.5-1.7,1.8-4.5,3.7-5.3.7-.3,2.4.2,3.3.2a16.19,16.19,0,0,0,4.9-.3c1.9-.4,1.1-3.3-.8-2.9-4,.8-9.5-1.7-12.5,2-1.1,1.4-1.2,3.1-1.4,4.8-.6,4.6-2.8,8.6-7.5,10-5.2,1.6-11.3-.5-15.6,3.8-2.5,2.5-3.4,6-1.3,8.9,1.1,1.7,3.7.2,2.5-1.3Z" fill="#5222d0"/><path d="M1017,145.4a14.316,14.316,0,0,1,7-12.2c3.3-2,7-1.8,10.8-1.8,5.1.1,10,0,13.3-4.4,1.1-1.6-1.5-3.1-2.6-1.5-4.4,5.9-15.5,1.5-21.8,4.5a17.247,17.247,0,0,0-9.6,15.4c-.1,1.9,2.9,1.9,2.9,0Z" fill="#5222d0"/><path d="M608,483.7c.9-.2,1.8-.5,2.8-.7.4.9.8,1.9,1.2,2.8a13.308,13.308,0,0,1-.5,4,20.868,20.868,0,0,0-.4,4.3c.2,2.2,1.1,4.6,3.1,5.7,3,1.6,6.4-.7,9.5.9,4.1,2,6.3,6.9,8.1,10.9.8,1.8,3.4.2,2.6-1.5-1.9-4.3-4.4-9.1-8.6-11.6-2.1-1.2-3.7-1.2-6-1.4-2.4-.2-3.2,2.6-5.6-2.3-.7-1.6.2-4,.4-5.6.5-3.5.7-7.7-3.2-9.2-2.6-1-5.8-.1-6.3,2.9-.3,1.9,2.6,2.7,2.9.8Z" fill="#5222d0"/><path d="M628.5,480c-2.9,2-1.7,5.2.3,7.6,2.2,2.6,4.7,4.7,6.7,7.6a41.622,41.622,0,0,1,5.1,10.9c.6,1.8,3.5,1.1,2.9-.8a46.034,46.034,0,0,0-5.4-11.7c-1.1-1.6-9.3-10.2-8-11.1,1.5-1,0-3.6-1.6-2.5Z" fill="#5222d0"/></g><g transform="translate(6304.977 5453.695)"><path d="M484.1,251.4c3.1,37.1,6,74.8-1.6,111.6-.4,1.9,2.5,2.7,2.9.8,7.7-37.1,4.8-75,1.7-112.4-.2-1.9-3.2-1.9-3,0Z" fill="#e8e8e8"/><path d="M485.8,252.4c18.4.8,36.9.8,55.3-.1,15.9-.8,33.2-.8,48-7.2,1.8-.8.2-3.4-1.5-2.6-15.4,6.7-33.9,6.3-50.4,7-17.1.7-34.3.7-51.4-.1-1.9-.1-1.9,2.9,0,3Z" fill="#e8e8e8"/><path d="M586.6,244.7A285.39,285.39,0,0,1,593.2,357c-.3,1.9,2.6,2.7,2.9.8a291.562,291.562,0,0,0-6.6-113.9c-.4-1.9-3.3-1.1-2.9.8Z" fill="#e8e8e8"/><path d="M483.3,364.5c19.8,4.4,40.2,4.8,60.4,3.4,10.2-.7,20.5-1.9,30.7-3.1,7.3-.9,14.9-1.3,20.9-6,1.5-1.2-.6-3.3-2.1-2.1-6.8,5.3-17.4,5-25.5,5.9-9.2,1.1-18.5,2-27.8,2.6-18.7,1.1-37.4.6-55.7-3.5-2-.5-2.8,2.4-.9,2.8Z" fill="#e8e8e8"/><path d="M491.3,355.7c2.4.1,4.7-.7,7.1-.9a26.382,26.382,0,0,1,8.4.8,1.5,1.5,0,0,0,.8-2.9,27.025,27.025,0,0,0-8-1c-2.8.1-5.5,1.1-8.3,1-1.9-.1-1.9,2.9,0,3Z" fill="#e8e8e8"/><path d="M493.1,348.7c4.9.1,9.9.1,14.8.2a1.5,1.5,0,0,0,0-3c-4.9-.1-9.9-.1-14.8-.2-1.9-.1-1.9,2.9,0,3Z" fill="#e8e8e8"/><path d="M494.1,341.2c4.4.2,8.7.4,13.1.6,1.9.1,1.9-2.9,0-3-4.4-.2-8.7-.4-13.1-.6-1.9-.1-1.9,2.9,0,3Z" fill="#e8e8e8"/><path d="M495.5,322.2a104.088,104.088,0,0,1,14.8-.8,1.5,1.5,0,0,0,0-3,104.9,104.9,0,0,0-14.8.8c-1.9.3-1.9,3.3,0,3Z" fill="#e8e8e8"/><path d="M496.5,314.3l14.1.3a1.5,1.5,0,0,0,0-3l-14.1-.3a1.5,1.5,0,0,0,0,3Z" fill="#e8e8e8"/><path d="M495.5,307.5a76.789,76.789,0,0,0,12.7-.2c1.9-.2,1.9-3.2,0-3a67.38,67.38,0,0,1-12.7.2c-1.9-.2-1.9,2.8,0,3Z" fill="#e8e8e8"/><path d="M496.2,288.3a75.534,75.534,0,0,1,15.8-1.4,1.5,1.5,0,0,0,0-3,77.13,77.13,0,0,0-16.6,1.5c-1.8.4-1,3.3.8,2.9Z" fill="#e8e8e8"/><path d="M495.9,281c5.6.1,11.2.1,16.9-.2,1.9-.1,1.9-3.1,0-3-5.6.3-11.2.4-16.9.2-2-.1-2,2.9,0,3Z" fill="#e8e8e8"/><path d="M493.8,273.2a144.6,144.6,0,0,0,18.6-.7c1.9-.2,1.9-3.2,0-3a144.608,144.608,0,0,1-18.6.7,1.5,1.5,0,0,0,0,3Z" fill="#e8e8e8"/><path d="M527.2,270.4a292.507,292.507,0,0,1,46.7-3.2,1.5,1.5,0,0,0,0-3,290.3,290.3,0,0,0-47.5,3.3c-1.9.3-1.1,3.2.8,2.9Z" fill="#e8e8e8"/><path d="M530.3,276c15.4-1.3,30.9-2.1,46.4-2.6,1.9-.1,1.9-3.1,0-3-15.5.4-31,1.3-46.4,2.6-2,.2-2,3.2,0,3Z" fill="#e8e8e8"/><path d="M529.1,282.7c16-.8,32.1,1.1,48.1-.6,1.9-.2,1.9-3.2,0-3-16,1.8-32.1-.2-48.1.6-1.9.1-1.9,3.1,0,3Z" fill="#e8e8e8"/><path d="M519.6,307.5c7,0,14-.1,21-.1a1.5,1.5,0,0,0,0-3c-7,0-14,.1-21,.1a1.5,1.5,0,0,0,0,3Z" fill="#e8e8e8"/><path d="M520.3,315.1c7.5-.2,15.1-.4,22.6-.5,2.1,0,22.1-1.1,22.1-.9.6,1.8,3.5,1.1,2.9-.8-.6-2.1-2.4-1.8-4.3-1.8-4.6,0-9.2.2-13.8.3-9.8.2-19.7.5-29.5.7a1.5,1.5,0,1,0,0,3Z" fill="#e8e8e8"/><path d="M520.3,322.6c6,.3,11.9.3,17.9.2,1.9-.1,1.9-3.1,0-3-6,.2-11.9.1-17.9-.2-2-.1-2,2.9,0,3Z" fill="#e8e8e8"/><path d="M516.8,339.8q30-1.95,60.2-1.5a1.5,1.5,0,0,0,0-3c-20.1-.3-40.1.2-60.2,1.5-1.9.1-1.9,3.1,0,3Z" fill="#e8e8e8"/><path d="M519.9,346.4l15.1-.3a1.5,1.5,0,0,0,0-3l-15.1.3a1.5,1.5,0,0,0,0,3Z" fill="#e8e8e8"/><path d="M547.1,346.3c8.1-.8,16.3-1.5,24.4-2,1.9-.1,1.9-3.1,0-3-8.2.5-16.3,1.2-24.4,2-1.9.2-2,3.2,0,3Z" fill="#e8e8e8"/><path d="M518.5,356c16.4-.2,32.8-.7,49.2-1.3,1.9-.1,1.9-3.1,0-3-16.4.7-32.8,1.1-49.2,1.3a1.5,1.5,0,0,0,0,3Z" fill="#e8e8e8"/><path d="M598.8,297.3a413.951,413.951,0,0,1,78.6-6.9,17.1,17.1,0,0,1-1.4-1.1,480.23,480.23,0,0,1,21.9,152,1.5,1.5,0,0,0,3,0,482.8,482.8,0,0,0-22-152.8,1.6,1.6,0,0,0-1.4-1.1,414.959,414.959,0,0,0-79.4,7c-2,.3-1.2,3.2.7,2.9Z" fill="#e8e8e8"/><path d="M545.4,366.7a204.617,204.617,0,0,1-11.6,82.5c-.6,1.8,2.2,2.6,2.9.8a208.8,208.8,0,0,0,11.7-83.3c-.1-1.9-3.1-2-3,0Z" fill="#e8e8e8"/><path d="M534.3,451.4c25.2,10.7,52.8,9.6,79.5,7.1,29.1-2.8,57.7-7.5,85.7-15.8a1.506,1.506,0,0,0-.8-2.9c-27.2,8-54.9,12.8-83.2,15.5-26.6,2.6-54.5,4.2-79.7-6.5-1.7-.8-3.2,1.8-1.5,2.6Z" fill="#e8e8e8"/><path d="M569.5,375a170.045,170.045,0,0,0-15.7,9.7c-1,.7-1,2.5.4,2.7,4.6,1,9.2,1.9,13.8,2.9,1.9.4,2.7-2.5.8-2.9-4.6-1-9.2-1.9-13.8-2.9a25.115,25.115,0,0,0,.4,2.7,157.664,157.664,0,0,1,15.7-9.7c1.6-.8.1-3.4-1.6-2.5Z" fill="#5222d0"/><path d="M592.8,365.8c-6.6,10.7-13.2,21.4-19.8,32-1,1.6,1.6,3.2,2.6,1.5,6.6-10.7,13.2-21.4,19.8-32,1-1.6-1.6-3.1-2.6-1.5Z" fill="#5222d0"/><path d="M597.4,388.5c5.9-.9,11.9-1.8,17.8-2.7,1.9-.3,1.1-3.2-.8-2.9-5.9.9-11.9,1.8-17.8,2.7-1.9.3-1.1,3.2.8,2.9Z" fill="#5222d0"/><path d="M627.2,372.4h-.3a1.622,1.622,0,0,0-1.7.7c-.1.1-.1.2-.2.3a1.363,1.363,0,0,0,0,1.5c2.3,3.4,7.7,4.2,11.4,5,.7.2,1.4.3,2.1.5-.1.1-.3.2-.4.3,0,.7-3.2,3.1-3.8,3.6l-6.6,6.3c-1.4,1.3.7,3.5,2.1,2.1,2.7-2.5,5.3-5.1,8-7.6,1.4-1.4,4.2-3.2,3.6-5.5-.5-1.9-2.6-2.1-4.3-2.6-2.7-.7-7.9-1.1-9.6-3.7v1.5c.1-.1.1-.2.2-.3-.6.2-1.1.5-1.7.7h.3c2,.4,2.8-2.5.9-2.8Z" fill="#5222d0"/><path d="M606.7,307.4a74.923,74.923,0,0,1,15.7-1c1.9.1,1.9-2.9,0-3a75.538,75.538,0,0,0-16.5,1.2c-1.9.3-1.1,3.1.8,2.8Z" fill="#e8e8e8"/><path d="M605.9,315q10.65-1.05,21.3-1.8c1.9-.1,1.9-3.1,0-3q-10.65.75-21.3,1.8c-1.9.2-1.9,3.2,0,3Z" fill="#e8e8e8"/><path d="M609.1,326.3v.1a17.1,17.1,0,0,0,1.4-1.1h-.2c.4.2.9.5,1.3.7,0-.1-.1-.1-.1-.2a11.022,11.022,0,0,0-.2,1.8c-.7.2-.6.3.4.2h1.7c1,0,2-.1,3-.1,2-.2,4-.4,6-.8,1.9-.3,1.1-3.2-.8-2.9a51.573,51.573,0,0,1-7.8.8c-1.6,0-3.5-.5-4.7.7a1.523,1.523,0,0,0-.2,1.8,1.8,1.8,0,0,0,1.6.9,1.5,1.5,0,0,0,1.4-1.1V327c.5-1.8-2.4-2.6-2.8-.7Z" fill="#e8e8e8"/><path d="M607,340.9c8.4-1.2,16.8-2.8,25.3-2.5,1.9.1,1.9-2.9,0-3-8.8-.3-17.5,1.4-26.1,2.6-1.9.3-1.1,3.2.8,2.9Z" fill="#e8e8e8"/><path d="M639.6,304.2a279.315,279.315,0,0,1,28.8-2.3c1.9-.1,1.9-3.1,0-3a274.928,274.928,0,0,0-28.8,2.3c-1.9.2-1.9,3.2,0,3Z" fill="#e8e8e8"/><path d="M646.5,316.8c6-1,11.9-1.9,17.9-2.9,1.9-.3,1.1-3.2-.8-2.9-6,1-11.9,1.9-17.9,2.9-1.9.3-1.1,3.2.8,2.9Z" fill="#e8e8e8"/><path d="M648.5,334.3c5.1-.5,10.3-.7,15.5-.7a1.5,1.5,0,0,0,0-3c-5.2,0-10.3.2-15.5.7-1.9.2-1.9,3.2,0,3Z" fill="#e8e8e8"/><path d="M657.5,340c6.3-.9,12.5-1.5,18.9-1.9,1.9-.1,1.9-3.1,0-3-6.6.4-13.1,1.1-19.7,2-1.9.3-1.1,3.1.8,2.9Z" fill="#e8e8e8"/><path d="M558.4,416.3a1.5,1.5,0,0,0,0-3,1.5,1.5,0,0,0,0,3Z" fill="#e8e8e8"/><path d="M555.2,413.6c2.5.8,4.9.5,7.5.4a86.976,86.976,0,0,1,10.2.4c1.9.2,1.9-2.8,0-3a64.809,64.809,0,0,0-8.8-.4c-2.6,0-5.5.6-8-.3-1.9-.6-2.7,2.3-.9,2.9Z" fill="#e8e8e8"/><path d="M558.8,422.6a70.113,70.113,0,0,1,16.5.4c1.9.2,1.9-2.8,0-3a82.778,82.778,0,0,0-16.5-.4c-1.9.2-1.9,3.2,0,3Z" fill="#e8e8e8"/><path d="M550.1,435.3c4.7,1.8,9.6,1.5,14.6,1.5h17.4c10.2,0,21.2,1.1,31.1-1.9,1.8-.6,1.1-3.5-.8-2.9-9.6,3-20.4,1.8-30.3,1.8H566.6c-5.3,0-10.7.5-15.8-1.4-1.8-.7-2.5,2.2-.7,2.9Z" fill="#e8e8e8"/><path d="M601.8,421.1c3.2-.2,6.4-.3,9.6-.5s6.5-.7,9.5.6c1.8.7,2.6-2.2.8-2.9-2.9-1.2-5.8-.9-8.9-.7l-11.1.6a1.451,1.451,0,1,0,.1,2.9Z" fill="#e8e8e8"/><path d="M589.4,448.4c16.1-.6,32.1-1.5,48.2-2.8,1.9-.2,1.9-3.2,0-3-16,1.3-32.1,2.2-48.2,2.8-2,.1-2,3.1,0,3Z" fill="#e8e8e8"/><path d="M768.5,162.7c4.5,47.4,3.5,95,2.5,142.5a1.5,1.5,0,0,0,3,0c1.1-47.5,2-95.1-2.5-142.5-.2-1.9-3.2-1.9-3,0Z" fill="#e8e8e8"/><path d="M770.1,163.8c20.3.9,40.2-4.8,60.3-7a293.053,293.053,0,0,1,61.4-.1c1.9.2,1.9-2.8,0-3a293.051,293.051,0,0,0-61.4.1c-20.1,2.2-40,7.9-60.3,7a1.5,1.5,0,0,0,0,3Z" fill="#e8e8e8"/><path d="M890.5,155.9c2.7,10.5,3.1,21.3,3.3,32,.3,11.5.7,23.1,1.1,34.6.8,22.7,1.8,45.5,3,68.2.1,1.9,3.1,1.9,3,0-1.2-23.4-2.3-46.8-3.1-70.2-.4-11.5-.7-23-1-34.4-.3-10.4-.8-20.9-3.4-31a1.5,1.5,0,0,0-2.9.8Z" fill="#e8e8e8"/><path d="M772.4,307.4c21.5,6.2,44.6,3.9,66.5,1.7,21.1-2.1,42-6.1,61.3-15.4,1.7-.8.2-3.4-1.5-2.6-19.3,9.3-40.4,13.1-61.5,15.2-21.1,2-43.3,4.2-63.9-1.8a1.518,1.518,0,1,0-.9,2.9Z" fill="#e8e8e8"/><path d="M895.7,182.8a175.969,175.969,0,0,1,37-1.8,179.141,179.141,0,0,1,19.2,2.2c2.7.5,5.7.7,8.3,1.6,3.7,1.3,3.5,4,4.1,7.5a596.57,596.57,0,0,1,9.1,74.2c.1,1.9,3.1,1.9,3,0-.9-14.1-2.2-28.2-4-42.2-.8-6.5-1.8-13-2.9-19.5l-1.8-10.5c-.5-3-.7-6.8-1.9-9.5-1.7-3.9-8.6-3.8-12.2-4.4a172.843,172.843,0,0,0-19-2.3,181.98,181.98,0,0,0-39.7,1.8c-1.9.3-1.1,3.2.8,2.9Z" fill="#e8e8e8"/><path d="M858.1,306.2a50.211,50.211,0,0,1,3.1,15.3c.1,2.6-.3,5.7,1.6,7.8s5.2,2.1,7.8,2.5c4.2.6,8.5,1.1,12.7,1.3,19.5,1.1,39-1.4,58.3-4,1.9-.2,1.9-3.3,0-3-16.5,2.2-33,4.4-49.7,4.2-3.8,0-7.6-.2-11.4-.5-2.5-.2-4.9-.5-7.4-.8-1.7-.2-5.3-.1-6.6-1.1-3.4-2.5-2.3-8.2-2.9-11.9a55.922,55.922,0,0,0-2.7-10.7c-.6-1.7-3.5-1-2.8.9Z" fill="#e8e8e8"/><path d="M936.8,268.1c2.2,9.6,2.6,19.5,3.1,29.4.5,9.4,1,18.9,1.4,28.3.8,19.2,1.3,38.4,1.5,57.7a1.5,1.5,0,0,0,3,0c-.2-19.9-.8-39.7-1.6-59.6-.8-18.6-.3-38.3-4.5-56.5-.4-2-3.3-1.2-2.9.7Z" fill="#e8e8e8"/><path d="M938.8,269.9a450.888,450.888,0,0,1,62.6.8c1.9.2,1.9-2.8,0-3a435.9,435.9,0,0,0-62.6-.8c-1.9.2-1.9,3.2,0,3Z" fill="#e8e8e8"/><path d="M942.5,384.1c2.5,4.3,6.6,5.9,11.4,6.5,7.2.9,14.5,1.2,21.7,1.7,15.4,1,30.8,1.8,46.2,1.9,7.5,0,15.1-.1,22.6-.4l10.8-.6c1.9-.1,5.2.2,6.9-1.2,1.1-.9,1.2-2.2,1.4-3.6.4-3.9.3-7.9.4-11.8.3-7.9.5-15.8.8-23.7.1-1.9-2.9-1.9-3,0-.2,6.2-.4,12.5-.6,18.7-.1,3-.2,5.9-.3,8.9-.1,1.6-.1,3.3-.2,4.9-.1,2.8-.4,3.8-3.4,4.6-2.6.7-6.1.4-8.8.6-3.3.2-6.5.3-9.8.4-6.2.2-12.4.2-18.7.2-12.1-.1-24.3-.6-36.4-1.4-6.2-.4-12.4-.8-18.7-1.3-6.4-.5-16,.4-19.7-5.9-1-1.7-3.6-.1-2.6,1.5Z" fill="#e8e8e8"/><path d="M994.6,225.6c5.5,18.9,6.7,37.9,7.6,57.5,1,20,1.9,39.9,2.9,59.9.1,1.9,3.1,1.9,3,0q-1.5-30.9-3-61.9c-.9-19.2-2.3-37.7-7.7-56.3a1.457,1.457,0,0,0-2.8.8Z" fill="#e8e8e8"/><path d="M1005.8,345.4c11.7,4.1,24.1,4.8,36.3,5.9,12.7,1.2,24.8,2.5,37.5.4s25.3-4.6,37.9-7.5c11.5-2.7,22.1-6.6,31.3-14.1,1.5-1.2-.6-3.3-2.1-2.1-9.5,7.7-20.9,11.2-32.7,13.9-11.7,2.7-23.4,5-35.2,6.9-12.4,2-24.3.6-36.7-.6-11.9-1.2-24.1-1.8-35.5-5.8-1.8-.6-2.6,2.3-.8,3Z" fill="#e8e8e8"/><path d="M995.9,225.7c21.5-6.1,44-6.5,66.2-7.6,22.5-1.2,44.7-1.9,67.2-.2,1.9.1,1.9-2.9,0-3-23.1-1.8-45.9-.9-69,.3-21.9,1.1-44,1.7-65.2,7.7-1.9.4-1.1,3.3.8,2.8Z" fill="#e8e8e8"/><path d="M1127.8,216.3c.3,19,2.8,37.9,6.2,56.6,1.7,9.5,3.7,18.9,5.8,28.3,2,9.3,3.7,18.7,6.9,27.6.6,1.8,3.5,1,2.9-.8-6.1-17.2-9-36.1-12.3-54a350.338,350.338,0,0,1-6.5-57.7c-.1-1.9-3.1-1.9-3,0Z" fill="#e8e8e8"/><path d="M780.6,179.1c.5,5.4.9,10.8,1.4,16.2.2,1.9,3.2,1.9,3,0-.5-5.4-.9-10.8-1.4-16.2-.1-1.9-3.1-1.9-3,0Z" fill="#5222d0"/><path d="M783.3,189.2a71.662,71.662,0,0,1,9-1.8c1.9-.2,1.9-3.2,0-3a65.24,65.24,0,0,0-9.8,1.9c-1.8.5-1,3.4.8,2.9Z" fill="#5222d0"/><path d="M791.5,175.8c0,3.4,0,6.8.1,10.2,0,2.7-.3,5.5.5,8.1.6,1.8,3.5,1.1,2.9-.8-.8-2.7-.4-5.9-.4-8.6,0-3,0-5.9-.1-8.9a1.5,1.5,0,0,0-3,0Z" fill="#5222d0"/><path d="M800.8,177.1c3.9.6,7.8-1.9,11.5-.7,1.8.6,2.6-2.3.8-2.9-4-1.2-7.6,1.3-11.5.7-1.8-.3-2.7,2.6-.8,2.9Z" fill="#5222d0"/><path d="M806.1,176.7a83.736,83.736,0,0,1,1.5,15.8,1.5,1.5,0,0,0,3,0,84.143,84.143,0,0,0-1.6-16.6c-.4-1.9-3.3-1.1-2.9.8Z" fill="#5222d0"/><path d="M820.3,173.3c-.3,7-.3,14-.2,21a1.5,1.5,0,0,0,3,0c-.1-7-.1-14,.2-21a1.5,1.5,0,0,0-3,0Z" fill="#5222d0"/><path d="M820.3,173.4c2.3,5.1,7.1,8.2,8.8,13.6.4,1.1,2.2,1.6,2.7.4,2.4-5.2,4.9-10.3,7.3-15.5a25.125,25.125,0,0,1-2.7-.4c1.5,7.9,3,15.9,4.4,23.8.4,1.9,3.2,1.1,2.9-.8-1.5-7.9-3-15.9-4.4-23.8a1.506,1.506,0,0,0-2.7-.4c-2.4,5.2-4.9,10.3-7.3,15.5a25.125,25.125,0,0,1,2.7.4c-1.8-5.8-6.6-9-9.1-14.4-.8-1.7-3.4-.2-2.6,1.6Z" fill="#5222d0"/><path d="M850.2,168.9a106.411,106.411,0,0,1,1.4,25.2,1.538,1.538,0,0,0,1.5,1.5,44.436,44.436,0,0,0,15.3-2.7c1.8-.7,1-3.6-.8-2.9a42.227,42.227,0,0,1-14.5,2.6l1.5,1.5a107.679,107.679,0,0,0-1.6-26c-.3-1.9-3.2-1.1-2.8.8Z" fill="#5222d0"/><path d="M782,215c19-1.4,38.1-2,57.2-1.9a1.5,1.5,0,0,0,0-3c-19.1-.1-38.2.5-57.2,1.9-1.9.1-1.9,3.1,0,3Z" fill="#e8e8e8"/><path d="M782.5,227.9c4.3.1,8.7.3,13,0,4-.2,7.9-1,11.9-.5,1.9.2,1.9-2.8,0-3-4-.5-7.9.3-11.9.5-4.3.2-8.7.1-13,0-2-.1-2,2.9,0,3Z" fill="#e8e8e8"/><path d="M782.4,236.4c7.2.4,14.3-1.1,21.4,0,1.9.3,2.7-2.6.8-2.9-7.4-1.1-14.8.3-22.2-.1-2-.1-2,2.9,0,3Z" fill="#e8e8e8"/><path d="M784.1,255.5h19.6a1.5,1.5,0,0,0,0-3H784.1a1.5,1.5,0,0,0,0,3Z" fill="#e8e8e8"/><path d="M785.4,262.5h14.2a1.5,1.5,0,0,0,0-3H785.4a1.5,1.5,0,0,0,0,3Z" fill="#e8e8e8"/><path d="M782.5,273.6h20a1.5,1.5,0,0,0,0-3h-20a1.5,1.5,0,0,0,0,3Z" fill="#e8e8e8"/><path d="M834.1,225.1h42.3a1.5,1.5,0,0,0,0-3H834.1a1.5,1.5,0,0,0,0,3Z" fill="#e8e8e8"/><path d="M835.1,236.9h27.5a1.5,1.5,0,0,0,0-3H835.1a1.5,1.5,0,0,0,0,3Z" fill="#e8e8e8"/><path d="M872.8,236.4H881a1.5,1.5,0,0,0,0-3h-8.2a1.5,1.5,0,0,0,0,3Z" fill="#e8e8e8"/><path d="M838,255.7h33.1a1.5,1.5,0,0,0,0-3H838a1.5,1.5,0,0,0,0,3Z" fill="#e8e8e8"/><path d="M826.2,269.3h29a1.5,1.5,0,0,0,0-3h-29a1.5,1.5,0,0,0,0,3Z" fill="#e8e8e8"/><path d="M838,276.7h22a1.5,1.5,0,0,0,0-3H838a1.5,1.5,0,0,0,0,3Z" fill="#e8e8e8"/><path d="M865.8,268.8h21a1.5,1.5,0,0,0,0-3h-21a1.5,1.5,0,0,0,0,3Z" fill="#e8e8e8"/><path d="M900.5,197.5h19.3a1.5,1.5,0,0,0,0-3H900.5a1.5,1.5,0,0,0,0,3Z" fill="#e8e8e8"/><path d="M925.7,191.8c5,2.1,10.6,2,15.4,4.5v-2.6c-3.5,2.5-7,5-10.4,7.5-1.6,1.1-.1,3.7,1.5,2.6,3.5-2.5,7-5,10.4-7.5a1.542,1.542,0,0,0,0-2.6c-5.1-2.6-10.9-2.6-16.1-4.8-1.8-.7-2.6,2.2-.8,2.9Z" fill="#e8e8e8"/><path d="M903.5,210.8c2.3.6,4.6,1.2,7,1.6.6.1,6.1.4,6.4,1-.3-.6-8,6.1-8.8,7-1.3,1.4.8,3.5,2.1,2.1a38.143,38.143,0,0,1,8-6.4c1.5-.9,3.2-2.2,2.3-4.2-.9-1.8-3.6-1.5-5.3-1.8a83.2,83.2,0,0,1-10.8-2.3c-2-.4-2.8,2.5-.9,3Z" fill="#e8e8e8"/><path d="M902.9,236.2h30.9a1.5,1.5,0,0,0,0-3H902.9a1.5,1.5,0,0,0,0,3Z" fill="#e8e8e8"/><path d="M934.2,226.5a30.643,30.643,0,0,0,6.6,2.4c2.4.7,6.5,1.3,8,3.6V231c-1,1.7-3,3.2-4.4,4.6l-4.3,4.3a1.523,1.523,0,0,0,1.8,2.4c.2-.1.5-.3.7-.4a1.5,1.5,0,0,0-1.5-2.6c-.2.1-.5.3-.7.4l1.8,2.4c1.7-1.7,3.5-3.4,5.2-5.2,1.4-1.4,3.1-2.6,4-4.3a1.36,1.36,0,0,0,0-1.5c-3.1-4.8-11-4.7-15.7-7.1-1.7-1-3.2,1.6-1.5,2.5Z" fill="#e8e8e8"/><path d="M902.7,253.3h21.7a1.5,1.5,0,0,0,0-3H902.7a1.5,1.5,0,0,0,0,3Z" fill="#e8e8e8"/><path d="M936.8,252.6H960a1.5,1.5,0,0,0,0-3H936.8a1.5,1.5,0,0,0,0,3Z" fill="#e8e8e8"/><path d="M905.4,273.1h23.7a1.5,1.5,0,0,0,0-3H905.4a1.5,1.5,0,0,0,0,3Z" fill="#e8e8e8"/><path d="M872.8,310.3h36.7a1.5,1.5,0,0,0,0-3H872.8a1.5,1.5,0,0,0,0,3Z" fill="#e8e8e8"/><path d="M886.5,320.9h33.1a1.5,1.5,0,0,0,0-3H886.5a1.5,1.5,0,0,0,0,3Z" fill="#e8e8e8"/><path d="M982.1,285.5c-5.3-5.7-12.1,7.4-12.8,11.3-.9,5.2.4,10.5,1.8,15.5,1.1,4.1,2.2,7.6.6,11.8a15.271,15.271,0,0,1-7.6,8.2c-1.3.6-.7,2.9.8,2.8,12.1-1.2,8.7,21.9,11.8,29.3,3,7,9.9,10.3,17.2,9.1,1.9-.3,1.1-3.2-.8-2.9-15.6,2.5-14.8-14.8-16.2-25-.9-6.3-4.4-14.3-12.1-13.5.3.9.5,1.9.8,2.8,6.3-2.8,11-10.6,9.8-17.5-.9-5.5-3.2-10.6-3.4-16.2a18.074,18.074,0,0,1,1-6.9c.3-.7,4.9-8.8,6.9-6.6,1.4,1.4,3.5-.8,2.2-2.2Z" fill="#e8e8e8"/><path d="M1029.8,348.7c-2.5,2.7-1.7,5.9-.3,9.1,1.2,2.7,4.1,5.9,4,8.9,0,5.5-6.4,8-10.6,9.6-1.8.7-1,3.6.8,2.9,5-1.9,10.6-4.3,12.3-9.9a8.826,8.826,0,0,0-.3-6.2c-1.2-3.1-7-9-3.8-12.3,1.4-1.4-.8-3.5-2.1-2.1Z" fill="#e8e8e8"/><g transform="translate(1066.653 267.491) rotate(-7)"><g transform="translate(0 0)"><path d="M1014.38,272.45c.63,8.133,16.466,6.021,16.739,14.364s-18.987,2.742-19.2,8.2c.273,4,24.378,2.312,24.241-8.2s-15.625-8.92-15.625-13.587,18.339-1.764,17.859-5.647S1013.75,264.317,1014.38,272.45Z" transform="translate(-1011.922 -265.269)" fill="#ec615b"/></g></g><g transform="translate(-20.157 -4.105)"><g transform="translate(1066.244 265.875)"><path d="M1075.624,267.743a229.262,229.262,0,0,1,1.637,25.34,6.327,6.327,0,0,1-4.267,3.58c-.448.144-3.441.486-4.375.679-3.185.676-2.245,2.85-2.245,2.85,0,1.375,5.762,1.23,9.808-.773,2.615-1.29,4.1-2.61,4.59-5.984s-.3-16.648-1.215-25.692c-.262-2.49-4.195-2.49-3.932,0Z" transform="translate(-1089.673 -126.776) rotate(-7)" fill="#ec615b"/></g></g></g><g transform="translate(6304.977 5453.695)"><path d="M444.5,957.7H553.4a1.5,1.5,0,0,0,0-3H444.5a1.5,1.5,0,1,0,0,3Z" fill="#161616"/><path d="M546.9,970.7H819.2a1.5,1.5,0,0,0,0-3H546.9a1.5,1.5,0,0,0,0,3Z" fill="#161616"/><path d="M758.3,957.7h368.3a1.5,1.5,0,0,0,0-3H758.3a1.5,1.5,0,0,0,0,3Z" fill="#161616"/><g transform="translate(-17.425 5)"><path d="M273.3,1079.6H355a1.5,1.5,0,0,0,0-3H273.3a1.5,1.5,0,1,0,0,3Z" fill="#161616"/></g><path d="M968.4,1061.5h118a1.5,1.5,0,0,0,0-3h-118a1.5,1.5,0,0,0,0,3Z" fill="#161616"/></g><g transform="translate(6304.977 5453.695)"><path d="M386.3,701.5v380.9c8.8-.9,17.5-1.8,26.3-2.8V698.7C403.9,699.6,395.1,700.5,386.3,701.5Z" fill="#fff"/><path d="M1146.8,705.6q-.3,187.05-.7,374h25.6V702.1C1163.5,703.3,1155.2,704.5,1146.8,705.6Z" fill="#fff"/><path d="M515.9,955.6q-1.5-80.55-.7-164.8c.4-36.1,1.1-71.6,2.1-106.7-10.6-.2-21.2-.5-31.9-.7q-.3,135.45-.7,270.8C495.1,954.7,505.5,955.2,515.9,955.6Z"/><path d="M1045,689.7q.3,132.3.7,264.6c9.5-.2,18.9-.5,28.4-.7q1.05-134.4,2.1-268.7C1065.8,686.4,1055.4,688.1,1045,689.7Z"/><path d="M343.4,693.8c-.2,7.4-.5,14.8-.7,22.2q430.05.75,860.2,1.4c-.7-7.8-1.4-15.7-2.1-23.5q-139.35-6.15-284.7-8.3C717.5,682.6,526.4,685.8,343.4,693.8Z"/><path d="M343.4,693.1q428.7.3,857.5.7-45.75-43.35-91.4-86.6-345.9.3-691.9.7Q380.4,650.5,343.4,693.1Z" fill="#fff"/><path d="M343.5,695.1q37.05-44.25,76.3-86.6c1.3-1.4-.8-3.5-2.1-2.1q-39.3,42.3-76.3,86.6c-1.2,1.4.9,3.6,2.1,2.1Z" fill="#161616"/><path d="M340.8,695.1v18.7a1.5,1.5,0,0,0,3,0V695.1a1.5,1.5,0,0,0-3,0Z" fill="#161616"/><path d="M344.8,717.8h857a1.5,1.5,0,0,0,0-3h-857a1.5,1.5,0,1,0,0,3Z" fill="#161616"/><path d="M1204.5,715V692.6a1.5,1.5,0,0,0-3,0V715a1.5,1.5,0,0,0,3,0Z" fill="#161616"/><path d="M342.3,717.8a1.5,1.5,0,0,0,0-3,1.5,1.5,0,0,0,0,3Z" fill="#161616"/><path d="M343.5,695.4h857a1.5,1.5,0,0,0,0-3h-857a1.5,1.5,0,0,0,0,3Z" fill="#161616"/><path d="M420.6,609.6h689a1.5,1.5,0,0,0,0-3h-689a1.5,1.5,0,0,0,0,3Z" fill="#161616"/><path d="M1108.1,609.7q45.45,42.15,91,84.4c1.4,1.3,3.5-.8,2.1-2.1q-45.45-42.15-91-84.4c-1.4-1.3-3.5.8-2.1,2.1Z" fill="#161616"/><path d="M385.6,716.3v364.5a1.5,1.5,0,0,0,3,0V716.3a1.5,1.5,0,0,0-3,0Z" fill="#161616"/><path d="M411.7,717.5v362a1.5,1.5,0,0,0,3,0v-362a1.5,1.5,0,0,0-3,0Z" fill="#161616"/><path d="M387.1,1083.7c7.9-.5,15.7-1,23.6-1.4,1.9-.1,1.9-3.1,0-3-7.9.5-15.7,1-23.6,1.4-1.9.2-2,3.2,0,3Z" fill="#161616"/><path d="M1144.3,716.3v364.5a1.5,1.5,0,0,0,3,0V716.3a1.5,1.5,0,0,0-3,0Z" fill="#161616"/><path d="M1170.4,717.5v362a1.5,1.5,0,0,0,3,0v-362a1.5,1.5,0,0,0-3,0Z" fill="#161616"/><path d="M1147,1081.7c7.9-.5,15.7-1,23.6-1.4,1.9-.1,1.9-3.1,0-3-7.9.5-15.7,1-23.6,1.4-1.9.1-1.9,3.1,0,3Z" fill="#161616"/><path d="M484.2,717.7V953.2a1.5,1.5,0,0,0,3,0V717.7a1.5,1.5,0,0,0-3,0Z" fill="#161616"/><path d="M514.1,719.1V953.2a1.5,1.5,0,0,0,3,0V719.1a1.5,1.5,0,0,0-3,0Z" fill="#161616"/><path d="M487,956.1h28.6a1.5,1.5,0,0,0,0-3H487a1.5,1.5,0,0,0,0,3Z" fill="#161616"/><path d="M1045,716.4V953.2a1.5,1.5,0,0,0,3,0V716.4a1.5,1.5,0,0,0-3,0Z" fill="#161616"/><path d="M1073.5,719.1V953.2a1.5,1.5,0,0,0,3,0V719.1a1.5,1.5,0,0,0-3,0Z" fill="#161616"/><path d="M1047.8,956.1H1075a1.5,1.5,0,0,0,0-3h-27.2a1.5,1.5,0,0,0,0,3Z" fill="#161616"/><path d="M945.6,590.9a11.951,11.951,0,0,0-2.3,6.5,154.057,154.057,0,0,0-1.4,28.1c.4,6,.8,14.9,1.1,26.3a27.067,27.067,0,0,0,11,7.2c7.5,2.5,14.6.8,28.4-2.7,5.6-1.4,10-2.8,13-3.8a25.708,25.708,0,0,0,3.1-9.9c.4-4.9-1.1-7.2.7-9.7s4.4-2,5.6-4.7c.7-1.6.6-4-.5-4.9-1.9-1.3-5.3,2.1-7,.7-.5-.4-.5-.8-.7-4.5-.3-5-.4-5.6.2-6.1.5-.6,2.2-.6,5.4-.5,2.4,0,3.5,0,4,.4,1.9,1.5,1.1,6.4-.7,9.9-2.3,4.4-5.8,5.8-5.4,6.7.5.9,4.9,0,8.5-2.2,2.1-1.3,5.2-3.1,5.9-6.5,1.2-5-3.6-9.4-4.3-10.1-5.9-5.5-14.5-3.7-15.6-3.4.1-4.8.2-9.6.4-14.4a81.163,81.163,0,0,0-30.4-7.2C950.5,585.6,946.8,589.2,945.6,590.9Z" fill="#fff"/><path d="M941.2,595.4a389.783,389.783,0,0,0-.6,55.1c.1,1.9,3.1,1.9,3,0a389.629,389.629,0,0,1,.6-55.1c.2-1.9-2.8-1.9-3,0Z" fill="#161616"/><path d="M940.8,651.3c13.4,14.8,34.3,10.2,50.6,3.9,1.8-.7,1-3.6-.8-2.9-15.3,5.9-35.1,10.9-47.7-3.1-1.3-1.4-3.4.7-2.1,2.1Z" fill="#161616"/><path d="M944.1,595.3c3.9-7.1,17.1-7.8,24.3-7.6a53.657,53.657,0,0,1,24.4,6.6c1.7.9,3.2-1.7,1.5-2.6a56.1,56.1,0,0,0-29.2-7c-7.7.3-19.4,1.6-23.6,9.1-.9,1.7,1.7,3.2,2.6,1.5Z" fill="#161616"/><path d="M993.1,594.6v13.5a1.519,1.519,0,0,0,1.9,1.4c5-1.1,12.9,0,15.8,4.9,5.7,9.4-5.4,11.4-11.1,15.2-2.5,1.6-2.9,3.3-2.9,6.2,0,6.5,0,14-6.7,17.3-1.7.9-.2,3.4,1.5,2.6,5.9-2.9,7.8-9,8.1-15.2.1-2.8-.8-6,1.4-8.3,1.1-1.1,3.3-1.6,4.7-2.3,3-1.4,5.8-2.9,7.8-5.6,3.8-5.1,1.7-10.4-2.8-14.1a19.793,19.793,0,0,0-16.6-3.7,23.065,23.065,0,0,0,1.9,1.4V594.4c-.1-1.7-3.1-1.7-3,.2Z" fill="#161616"/><path d="M995.4,613.5a33.834,33.834,0,0,0,.6,11c.4,1.9,3.3,1.1,2.9-.8a31.846,31.846,0,0,1-.5-10.2c.2-1.9-2.8-1.9-3,0Z" fill="#161616"/><path d="M997.7,616.5a6.316,6.316,0,0,1,5.7-1.6c1.9.6,3.4,2.8,2.5,4.8-1.3,2.7-5.7,2.7-8.3,2.7a1.5,1.5,0,0,0,0,3c4.7.1,12.3-1.3,11.5-7.7a7.16,7.16,0,0,0-4.9-5.7c-3.1-.9-6.3.3-8.7,2.4-1.4,1.2.7,3.3,2.2,2.1Z" fill="#161616"/><path d="M952.7,590.6c-2,1.6-5.3.8-5.6,4.2-.3,2.7,2,4.6,4.3,5.1,5.2,1.1,11.6-.2,17-.1,6.4.1,12.9.6,19.3,1.3.8.1,1.5-.8,1.5-1.5a4.407,4.407,0,0,0-.9-3.3c-1-1.6-3.6-.1-2.6,1.5.2.6.3,1.2.5,1.8l1.5-1.5a198.736,198.736,0,0,0-23.1-1.3c-1.9,0-3.9,0-5.8.1-1.4,0-4.3.8-5.5.2-.6-.9-1.3-1.8-1.9-2.7a9.359,9.359,0,0,0,1.6-.4c.5-.4,1.4-.8,1.9-1.2,1.5-1.3-.7-3.4-2.2-2.2Z" fill="#161616"/><path d="M970.6,586.5c-.4-1.4-8.9-.8-16.6,1.6a60.374,60.374,0,0,0-10.3,4.3c-.8,11-1.3,22.4-1.6,34.4q-.3,12.75,0,24.9a37.518,37.518,0,0,0,19.4,7.5,36.7,36.7,0,0,0,15-2l-5.1-58.5c-8-.1-14.3-.8-14.6-2.8C956.2,592.8,971.2,588.4,970.6,586.5Z" fill="#4c4c4c" opacity="0.09"/><path d="M944.1,598.7c4.2,13.3,8.6,26.8,13,40.3,2.2,6.8,4.5,13.5,6.7,20.2a32.673,32.673,0,0,1-12.2-2.8,33.18,33.18,0,0,1-9.1-5.9,252.468,252.468,0,0,1-.4-29.2C942.5,613.2,943.2,605.6,944.1,598.7Z" fill="#4c4c4c" opacity="0.11"/><path d="M975.6,425.6c-.9,4.6-2,11.4-3.2,19.7-3.7,27.3-3.6,48.5-3.5,65,.1,12.1.6,27.8,2.1,46.3a228.113,228.113,0,0,0,22.5,6.7c17.1,4.2,27.1,4.6,55.5,8.4,17.5,2.4,13.4,2.2,28.8,4.2,22.7,3,37,4.9,55.1,5.3a315.685,315.685,0,0,0,34.1-1.1,363.154,363.154,0,0,0,7-40.7,380.754,380.754,0,0,0,2.1-47,430.524,430.524,0,0,0-4.9-59c-3.8-.9-9.1-2.2-15.4-3.5a484.336,484.336,0,0,0-69.5-9.1,521.473,521.473,0,0,0-76.5.7C995.8,422.6,984.2,424.2,975.6,425.6Z" fill="#fff"/><path d="M320.9,501.7q25.95,66.15,51.8,132.3,75.9-46.05,151.8-92.2-21.9-53.7-43.7-107.5c-25.7,8.7-52.8,18.9-81.1,30.8C371.3,477.1,345.1,489.4,320.9,501.7Z" fill="#fff"/><path d="M371.8,635.8a673.081,673.081,0,0,0,62.9,33.8c14.4,6.9,28.5,12.9,41.9,18.3,23.1-15.6,46.2-31.2,69.2-47,22.7-15.6,45.4-31.2,68-47q-43.2-25.65-86.5-51.2Q449.45,589.35,371.8,635.8Z" fill="#fff"/><path d="M400,638c43.7-26.4,88.1-52.1,129.7-81.8,1.6-1.1.1-3.7-1.5-2.6-41.6,29.7-86,55.4-129.7,81.8-1.6,1-.1,3.6,1.5,2.6Z" fill="#161616"/><path d="M416.6,648.3c43.7-26.4,88.1-52.1,129.7-81.8,1.6-1.1.1-3.7-1.5-2.6-41.6,29.7-86,55.4-129.7,81.8-1.6,1-.1,3.6,1.5,2.6Z" fill="#161616"/><path d="M436.9,658c43.7-26.4,88.1-52.1,129.7-81.8,1.6-1.1.1-3.7-1.5-2.6-41.6,29.7-86,55.4-129.7,81.8a1.5,1.5,0,0,0,1.5,2.6Z" fill="#161616"/><path d="M453.5,668.3c43.7-26.4,88.1-52.1,129.7-81.8,1.6-1.1.1-3.7-1.5-2.6-41.6,29.7-86,55.4-129.7,81.8a1.5,1.5,0,0,0,1.5,2.6Z" fill="#161616"/><path d="M413.6,628.6c11,7,22.1,13.9,33.1,20.9,1.6,1,3.1-1.6,1.5-2.6-11-7-22.1-13.9-33.1-20.9-1.6-1-3.1,1.6-1.5,2.6Z" fill="#161616"/><path d="M430.8,618.6c10.3,7.3,20.6,14.5,30.9,21.8,1.6,1.1,3.1-1.5,1.5-2.6-10.3-7.3-20.6-14.5-30.9-21.8-1.5-1.1-3,1.5-1.5,2.6Z" fill="#161616"/><path d="M447.3,608.5c9.9,7.2,19.7,14.6,29.2,22.4,1.5,1.2,3.6-.9,2.1-2.1-9.7-7.9-19.7-15.5-29.8-22.8-1.6-1.3-3.1,1.3-1.5,2.5Z" fill="#161616"/><path d="M464.5,598.7a297.91,297.91,0,0,1,27.7,22.4c1.4,1.3,3.5-.8,2.1-2.1A311.1,311.1,0,0,0,466,596.1c-1.6-1.1-3.1,1.5-1.5,2.6Z" fill="#161616"/><path d="M480.3,590.1a258.943,258.943,0,0,1,25.3,23.8c1.3,1.4,3.4-.7,2.1-2.1A270.846,270.846,0,0,0,482.4,588c-1.4-1.2-3.6.9-2.1,2.1Z" fill="#161616"/><path d="M492.8,580.3a202.888,202.888,0,0,1,26.9,25.5c1.3,1.5,3.4-.7,2.1-2.1a202.888,202.888,0,0,0-26.9-25.5c-1.4-1.2-3.6.9-2.1,2.1Z" fill="#161616"/><path d="M508.4,569.6c9.6,7.7,19,15.7,27.9,24.1,1.4,1.3,3.5-.8,2.1-2.1-9-8.4-18.3-16.5-27.9-24.1-1.5-1.2-3.6.9-2.1,2.1Z" fill="#161616"/><path d="M521.6,562.2c5.3,3,9.5,7.8,13.9,12,4.3,4.1,8.5,8.2,12.8,12.3,1.4,1.3,3.5-.8,2.1-2.1-4.7-4.5-9.4-9.1-14.1-13.6-4.1-4-8.1-8.3-13.1-11.2-1.8-.9-3.3,1.7-1.6,2.6Z" fill="#161616"/><path d="M398,638.2a317.823,317.823,0,0,0,36.5,20.4c1.7.8,3.3-1.8,1.5-2.6a343.209,343.209,0,0,1-36.5-20.4c-1.6-1-3.1,1.6-1.5,2.6Z" fill="#161616"/><path d="M529.5,557l1.2.3a1.39,1.39,0,0,0,1.8-1,1.431,1.431,0,0,0-1-1.8l-1.2-.3a1.456,1.456,0,1,0-.8,2.8Z" fill="#161616"/><path d="M529.2,556.8c12.6,5.6,23.5,14.2,35.7,20.5,1.7.9,3.2-1.7,1.5-2.6-12.2-6.3-23.1-14.9-35.7-20.5-1.7-.8-3.3,1.8-1.5,2.6Z" fill="#161616"/><path d="M433.2,658.5A152.394,152.394,0,0,1,451.1,669c1.6,1.1,3.1-1.5,1.5-2.6a161.016,161.016,0,0,0-17.9-10.5c-1.7-.9-3.2,1.7-1.5,2.6Z" fill="#161616"/><path d="M447.6,650.1a138.488,138.488,0,0,1,13.2,11.1c1.4,1.3,3.5-.8,2.1-2.1a128.3,128.3,0,0,0-13.8-11.6c-1.5-1.2-3,1.4-1.5,2.6Z" fill="#161616"/><path d="M462,641a101.06,101.06,0,0,1,13.8,12.3c1.3,1.4,3.4-.7,2.1-2.1a102.98,102.98,0,0,0-14.4-12.8c-1.5-1.1-3,1.5-1.5,2.6Z" fill="#161616"/><path d="M477.1,631.4c4.2,4,8.2,8.2,12.1,12.4,1.3,1.4,3.4-.7,2.1-2.1-3.9-4.3-7.9-8.4-12.1-12.4a1.485,1.485,0,1,0-2.1,2.1Z" fill="#161616"/><path d="M518.8,605c4,4.7,8,9.5,12.1,14.2,1.2,1.5,3.4-.7,2.1-2.1-4-4.7-8-9.5-12.1-14.2-1.3-1.5-3.4.7-2.1,2.1Z" fill="#161616"/><path d="M536.5,594.4c4,4.2,7.8,8.6,11.6,13,1.3,1.5,3.4-.7,2.1-2.1-3.8-4.4-7.6-8.8-11.6-13-1.3-1.4-3.4.7-2.1,2.1Z" fill="#161616"/><path d="M548.2,586.6c6.4,3,12.7,5.9,19.1,8.9,1.7.8,3.3-1.8,1.5-2.6-6.4-3-12.7-5.9-19.1-8.9-1.7-.8-3.3,1.8-1.5,2.6Z" fill="#161616"/><path d="M564.6,576.5c5.6,3.5,11.3,6.8,17.1,9.8,1.7.9,3.2-1.7,1.5-2.6-5.8-3-11.5-6.3-17.1-9.8-1.6-1.1-3.1,1.5-1.5,2.6Z" fill="#161616"/><path d="M654.3,372.9c-1.2,11.1-2.2,22.5-2.8,34.4a569.615,569.615,0,0,0,8.4,130.3c21.1-.1,38.1-.4,48.8-.7,73.4-1.8,105.2-6.1,170.6-6.3,16.6,0,29.9.2,37.6.4,2.6-10.4,4.9-21.4,6.7-33,8.1-52.8,3-99.4-4.9-135.5a433.837,433.837,0,0,0-58.3-7c-16.1-.8-20.6-.2-85.3,2.8-46,2.1-58.3,2.5-79.7,6A356.626,356.626,0,0,0,654.3,372.9Z" fill="#fff"/><path d="M1048.6,572.3a324.946,324.946,0,0,1-.7,40.7c-.1,1.9,2.9,1.9,3,0a325.251,325.251,0,0,0,.7-40.7c-.1-2-3.1-2-3,0Z" fill="#161616"/><path d="M1066.2,575.2V613a1.5,1.5,0,0,0,3,0V575.2a1.5,1.5,0,0,0-3,0Z" fill="#161616"/><path d="M1048.3,611.6c-3.2-.2-15.5,2-13,7.7,1.1,2.6,5.5,2.8,7.7,3.2a99.593,99.593,0,0,0,15.4,1,148.573,148.573,0,0,0,14.9-.7c2.3-.3,7-.8,8.4-3.1,3.1-5.3-10.7-7.8-13.3-8.2-1.9-.3-2.7,2.6-.8,2.9a38.528,38.528,0,0,1,6.5,1.6c2.9,1,5.7,1.6,2.1,3.3-4,1.8-10.5,1.1-14.8,1.2a108.893,108.893,0,0,1-15.1-.5c-1.9-.2-9.5-.1-5.8-3.7,1.8-1.8,5.6-1.8,7.9-1.7,1.9.1,1.9-2.9-.1-3Z" fill="#161616"/><path d="M971.4,558.8a386.851,386.851,0,0,0,76.9,14.7c1.9.2,1.9-2.8,0-3A378.779,378.779,0,0,1,972.2,556c-1.8-.6-2.6,2.3-.8,2.8Z" fill="#161616"/><path d="M1066.5,575.5c33.4,5.9,67.4,8.1,101.1,4.7,1.9-.2,1.9-3.2,0-3-33.5,3.3-67.2,1.3-100.3-4.6-1.9-.3-2.7,2.6-.8,2.9Z" fill="#161616"/><path d="M972.4,556.4c-2.4-43.4-4.6-87.3,5-130.1.4-1.9-2.5-2.7-2.9-.8-9.6,43-7.4,87.2-5.1,130.9.1,1.9,3.1,1.9,3,0Z" fill="#161616"/><path d="M976.1,427.3c32-6.8,65.9-5.9,98.5-5.3,32.1.6,64.4,3.5,95.2,13.1,1.8.6,2.6-2.3.8-2.9-31.1-9.7-63.6-12.6-96-13.2-32.8-.6-67-1.5-99.3,5.4-1.9.5-1.1,3.3.8,2.9Z" fill="#161616"/><path d="M1169.9,434.4a412.962,412.962,0,0,1-3.7,143.7c-.4,1.9,2.5,2.7,2.9.8a417.367,417.367,0,0,0,3.7-145.3c-.3-1.9-3.2-1.1-2.9.8Z" fill="#161616"/><path d="M319.4,503.5q26.1,67.2,52.2,134.3c.7,1.8,3.6,1,2.9-.8q-26.1-67.2-52.2-134.3c-.7-1.8-3.6-1-2.9.8Z" fill="#161616"/><path d="M371,638.8q51,27.75,104.2,51.1c1.8.8,3.3-1.8,1.5-2.6q-53.1-23.4-104.2-51.1a1.5,1.5,0,0,0-1.5,2.6Z" fill="#161616"/><path d="M477.2,690.1q68.4-47.1,136.9-94.3c1.6-1.1.1-3.7-1.5-2.6q-68.4,47.1-136.9,94.3c-1.6,1.1-.1,3.7,1.5,2.6Z" fill="#161616"/><path d="M320.7,503.2a1386.852,1386.852,0,0,1,160.5-67.7c1.8-.6,1-3.5-.8-2.9a1406.462,1406.462,0,0,0-161.2,68c-1.8.9-.3,3.4,1.5,2.6Z" fill="#161616"/><path d="M373.6,636.7q75.75-46.35,151.6-92.7c1.6-1,.1-3.6-1.5-2.6q-75.75,46.35-151.6,92.7c-1.6,1-.1,3.6,1.5,2.6Z" fill="#161616"/><path d="M479.2,435.1q22.05,53.25,44,106.4c.7,1.8,3.6,1,2.9-.8q-22.05-53.25-44-106.4c-.7-1.8-3.6-1-2.9.8Z" fill="#161616"/><path d="M525.3,543.3q44.1,25.2,88.1,50.5a1.5,1.5,0,0,0,1.5-2.6q-44.1-25.2-88.1-50.5c-1.7-.9-3.2,1.7-1.5,2.6Z" fill="#161616"/><path d="M651.5,373.6c-4.1,54.5,1.1,109.1,6.4,163.3.2,1.9,3.2,1.9,3,0-5.3-54.3-10.5-108.8-6.4-163.3.2-1.9-2.8-1.9-3,0Z" fill="#161616"/><path d="M653.9,374.9c31.8-11.6,66.1-12.4,99.5-14.4,34.7-2.1,69.5-4.8,104.2-3.8a355.657,355.657,0,0,1,60.8,6.6c1.9.4,2.7-2.5.8-2.9-34.6-7.1-69.9-7.7-105-6.3-35.4,1.4-71.1,3.1-106.3,6.5-18.6,1.8-37.1,4.9-54.8,11.3-1.8.8-1,3.7.8,3Z" fill="#161616"/><path d="M918.4,362a432.221,432.221,0,0,1-2.2,167.7,17.114,17.114,0,0,0,1.4-1.1q-100.2,3.3-200.3,6.5c-18.9.6-37.9,1.2-56.8,1.8-1.9.1-1.9,3.1,0,3q100.2-3.3,200.3-6.5c18.9-.6,37.9-1.2,56.8-1.8a1.391,1.391,0,0,0,1.4-1.1,438.439,438.439,0,0,0,2.2-169.3c-.3-1.9-3.2-1.1-2.8.8Z" fill="#161616"/><path d="M1050.3,571.9c0,5.6-.1,11.3-.2,17-.2,8-.4,16-.7,23.8a13.552,13.552,0,0,0-7.2.9c-.3.1-5.9,2.5-5.7,4.6.5,3.6,18.4,4.1,28.2,3.7,5.6-.2,15.9-.6,16.2-2.8.2-1.7-5-3.9-12.4-6.1-.3-13.2-.6-26.5-.9-39.7C1061.8,572.8,1056,572.3,1050.3,571.9Z"/><path d="M984.9,437.3a596.581,596.581,0,0,0-3.5,99.1c.1,1.9,3.1,1.9,3,0a618.989,618.989,0,0,1,3.5-99.1c.2-1.9-2.8-1.9-3,0Z" fill="#e8e8e8"/><path d="M987.3,438.5c13.8-5.1,28.4-6.4,43-6.6,14.4-.1,28.8.4,43.1,1.3a643.876,643.876,0,0,1,88.6,12c1.9.4,2.7-2.5.8-2.9a640.254,640.254,0,0,0-89.4-12.1c-14.9-1-30-1.5-44.9-1.3-14.2.2-28.5,1.7-41.9,6.7-1.9.6-1.1,3.5.7,2.9Z" fill="#e8e8e8"/><path d="M1161.8,444c1.5,39-2.1,78-6,116.8-.2,1.9,2.8,1.9,3,0,3.9-38.8,7.4-77.8,6-116.8-.1-1.9-3.1-1.9-3,0Z" fill="#e8e8e8"/><path d="M981.9,538.6c11.8,7,26.8,9.2,40,12.1,15.3,3.4,30.8,6.2,46.4,8.4,14.7,2.1,29.5,3.6,44.4,4.6,14.6,1,30.1,2.6,44.5-.3,1.9-.4,1.1-3.3-.8-2.9-14.4,3-30.1,1.1-44.7.2-14.9-1-29.8-2.6-44.5-4.7-14.3-2.1-28.5-4.6-42.6-7.7-13.5-3-29.1-5.2-41.2-12.2a1.458,1.458,0,1,0-1.5,2.5Z" fill="#e8e8e8"/><path d="M985.5,452c59.3-3.6,118.6,3,177.2,11.2,1.9.3,2.7-2.6.8-2.9-58.9-8.3-118.4-14.9-178-11.3-1.9.1-1.9,3.1,0,3Z" fill="#e8e8e8"/><path d="M1005.8,442.1a.665.665,0,0,1,0-1.3c.9-.4,1.6.6,1.5,1.4-.1,1.3-1.6.4-1.4-.3l.3-.3c-.1.1-.2-.1-.2-.1.1-.2.7-.7.7,0a1.5,1.5,0,0,0-3,0,2.606,2.606,0,0,0,2.7,2.6,2.512,2.512,0,0,0,2.5-3,2.933,2.933,0,0,0-3.3-2.5,3.468,3.468,0,0,0-2.8,3.6c.3,3.7,5.7,5,7.1,1.3a4.281,4.281,0,0,0-4.7-5.8,3.622,3.622,0,0,0-3,3.4,3.871,3.871,0,0,0,2.7,3.8,1.471,1.471,0,0,0,.9-2.8Z" fill="#e8e8e8"/><path d="M1021.8,440.2c-.5-.1,0-.5.3-.5.6.1.5.8,0,.8h-.1a.438.438,0,0,1-.1-.3v-.3a.1.1,0,0,1-.1.1c-.2,0,.2-.1.1,0,.7-.3-.1.2.1,0v-.2h0a1.431,1.431,0,0,0-1.8,1,1.512,1.512,0,0,0,1,1.8,2.849,2.849,0,0,0,3.4-1.5,2.676,2.676,0,0,0-.8-3.5,3.122,3.122,0,0,0-5,2.7,3.269,3.269,0,0,0,5.7,1.9,3.456,3.456,0,1,0-6-3,3.15,3.15,0,0,0,2.3,3.7,1.445,1.445,0,1,0,1-2.7Z" fill="#e8e8e8"/><path d="M1051.7,479.6c-13.5,5.6-26.8,11.5-40,17.6-1.3.6-.7,2.4.4,2.7a203.078,203.078,0,0,1,32.5,14.9,1.5,1.5,0,0,0,1.5-2.6,203.053,203.053,0,0,0-33.2-15.2,25.115,25.115,0,0,0,.4,2.7c13-6,26.1-11.8,39.3-17.3,1.7-.7.9-3.6-.9-2.8Z" fill="#e8e8e8"/><path d="M1089.4,475.1c-11.3,14.3-22.5,28.5-33.8,42.8-1.2,1.5.9,3.6,2.1,2.1,11.3-14.3,22.5-28.5,33.8-42.8,1.2-1.4-.9-3.6-2.1-2.1Z" fill="#e8e8e8"/><path d="M1104.5,491.7a237.083,237.083,0,0,0,29.3,15.9V505c-10.8,6.1-21.6,12.2-32.4,18.2-1.7.9-.2,3.5,1.5,2.6,10.8-6.1,21.6-12.2,32.4-18.2a1.542,1.542,0,0,0,0-2.6,237.092,237.092,0,0,1-29.3-15.9c-1.6-1.1-3.1,1.5-1.5,2.6Z" fill="#e8e8e8"/><path d="M1106.4,555.7c12.4.3,24.7.6,37.1.8a1.5,1.5,0,0,0,0-3c-12.4-.3-24.7-.6-37.1-.8a1.5,1.5,0,0,0,0,3Z" fill="#e8e8e8"/><path d="M329.2,506.2q23.1,55.05,43.4,111.2c.7,1.8,3.6,1,2.9-.8q-20.4-56.1-43.4-111.2c-.8-1.8-3.7-1-2.9.8Z" fill="#e8e8e8"/><path d="M331,505.4c47.6-19.5,95.2-39.1,142.5-59.3,1.8-.8.2-3.3-1.5-2.6-47.1,20.1-94.4,39.6-141.8,59-1.8.8-1,3.7.8,2.9Z" fill="#e8e8e8"/><path d="M473.2,445.3q21,44.85,39.1,90.8c.7,1.8,3.6,1,2.9-.8q-18.3-46.35-39.4-91.6c-.8-1.6-3.4-.1-2.6,1.6Z" fill="#e8e8e8"/><path d="M376.2,619.5q35.1-19.65,69.4-40.3c11.3-6.8,22.6-13.7,33.8-20.7,11-6.9,22-13.9,33.9-19.3,1.8-.8.2-3.4-1.5-2.6-11.9,5.4-22.9,12.4-33.9,19.3-11.2,7-22.5,13.9-33.8,20.7-22.9,13.8-46.1,27.2-69.4,40.3a1.5,1.5,0,0,0,1.5,2.6Z" fill="#e8e8e8"/><path d="M387.8,528.6c-6.6-4-13.2,2.9-17,7.8a19.626,19.626,0,0,0-3,20c2.5,6.1,8.1,12.2,15.2,11.8,8.4-.5,13.4-7.9,17.2-14.5a1.5,1.5,0,0,0-2.6-1.5c-2.7,4.7-5.7,9.9-11,12-6.3,2.6-11.9-1.2-15-6.7a17.408,17.408,0,0,1-1.6-14.1c1.6-4.5,10.2-15.8,16.2-12.2,1.7,1,3.3-1.6,1.6-2.6Z" fill="#5222d0"/><path d="M423.4,512.3c0-4.6-4.7-3.3-7.2-1.4-4,3-8.8,9.8-9.5,14.8-.8,6.3,6.1,5.1,10.4,4.7,5.4-.5,13,1.5,8.8,8.7-2.7,4.6-8.2,6.7-13.2,6.9-1.9.1-1.9,3.1,0,3,7.6-.4,21.7-7.6,16.6-17.4-2.2-4.1-7.1-4.7-11.3-4.4-1.1.1-4.2.9-5.3.5-4-1.5-1.8-4.7-.8-6.6a30.679,30.679,0,0,1,2.3-3.9c.3-.4,6.1-6.2,6.1-5,.1,2.1,3.1,2.1,3.1.1Z" fill="#5222d0"/><path d="M461.6,489.7c-4.9-1.9-9.3,2.3-12.2,5.8-2.4,2.8-6.7,8.5-5.2,12.6,1.6,4.4,8.4,2.4,11.6,2a18.86,18.86,0,0,1,5.3-.2c4.5.6,6.1,5.2,4,8.9-2.5,4.4-7.4,5.8-12,6.4-1.9.3-1.1,3.2.8,2.9,7.4-1.1,20.4-8.6,14-17.9-3.1-4.5-9.3-3.4-13.8-2.9-1,.1-4.7,1.1-5.3.4-1.5-1.5-.6-5,.3-6.6,2-3.4,6.9-10.5,11.8-8.6,1.7.8,2.5-2.1.7-2.8Z" fill="#5222d0"/><path d="M464,556.4c7.5-4.8,15.1-9.7,22.6-14.5,1.6-1,.1-3.6-1.5-2.6-7.5,4.8-15.1,9.7-22.6,14.5-1.6,1.1-.1,3.7,1.5,2.6Z" fill="#e8e8e8"/><path d="M493,538.6c1.9-.9,3.8-1.8,5.8-2.7,1.7-.8.2-3.4-1.5-2.6-1.9.9-3.8,1.8-5.8,2.7-1.8.8-.2,3.4,1.5,2.6Z" fill="#e8e8e8"/><path d="M446.9,463.6h0a6.373,6.373,0,0,0,.2-.7c0-.1.1-.1.1-.2a4.348,4.348,0,0,1,.7-.4c-.3.1.6.1.7.1.3.1.3.3.4.5s0-.2,0,0c-.1.3,0-.2,0,0h0l-.1.1a.349.349,0,0,0-.2.1c-.2.1-.1-.1,0,0h-.1a.1.1,0,0,1-.1-.1c-.1-.1,0-.1,0,.1h0s-.1-.3,0-.3a1.007,1.007,0,0,0-.1.3c.1-.3-.1.1,0-.1l.1-.1c-.1.1.2,0,.2,0,.1,0,.2,0,.2.1.1,0,.1.1,0,0,0,0,.1.3.1.1v.4a.622.622,0,0,1-.6.4h-.1c.2.1,0,0-.1,0,.2.1-.1-.1-.1-.1a.9.9,0,0,1-.1-.5c0-.3,0-.4.3-.6l.1-.1c.1,0,.1-.1.2-.1h.2c-.2-.1.1.1.2.1a1.012,1.012,0,0,1,.4.7,1.5,1.5,0,1,0-3,0c0,2.8,4.5,2.8,4.6.1s-4.2-3.2-4.8-.6a2.746,2.746,0,0,0,1.9,3.1,2.628,2.628,0,0,0,3-1.4,2.913,2.913,0,0,0-4-3.9,2.7,2.7,0,0,0-.9,3.6,2.344,2.344,0,0,0,1.8,1.1,1.859,1.859,0,0,0,1.8-1.8,1.538,1.538,0,0,0-1.5-1.5,1.819,1.819,0,0,0-1.4,1.6Z" fill="#e8e8e8"/><path d="M460.5,457.6c.8-.2,1.1,1.1.3,1.2-.1,0-.4-.1-.3-.1h0c-.2-.2-.1-.1,0,.1,0-.1,0-.1-.1-.2h0v-.1a.758.758,0,0,1,.2-.4c.1-.1.3-.1.4-.2h0c.1,0,.1,0,.2.1h0l.1.1h0c0,.1,0,.5.1.3l-1,1a1.854,1.854,0,0,1,.7-.2h0c-.1-.1-.2-.1-.3-.3,0-.1-.1-.4-.1-.3,0,.2.1-.3,0-.1a.961.961,0,0,1,.9-.7,1.5,1.5,0,0,0,0,3c2.3,0,2.8-3.2.9-4.3a3.5,3.5,0,0,0-3,0,2.051,2.051,0,0,0-.8,3c1,1.8,3.9,2,4.6-.2a2.782,2.782,0,0,0-3-3.5,2.478,2.478,0,0,0-1.9,2.9,2.32,2.32,0,0,0,2.9,1.7,1.4,1.4,0,0,0,1-1.8,1.512,1.512,0,0,0-1.8-1Z" fill="#e8e8e8"/><path d="M660.4,378.9q1.2,75.15,8,150c.2,1.9,3.2,1.9,3,0q-6.75-74.85-8-150a1.5,1.5,0,1,0-3,0Z" fill="#e8e8e8"/><path d="M663.9,380.5c20.5-3.6,41.3-4.3,62-5.2,20.1-.8,40.3-1.6,60.4-2.3q60.9-2.25,121.8-3.8a1.5,1.5,0,0,0,0-3q-61.95,1.65-123.8,3.8c-20.5.7-40.9,1.5-61.4,2.4-20,.8-40,1.7-59.8,5.2-1.8.3-1,3.2.8,2.9Z" fill="#e8e8e8"/><path d="M907.6,368.5c5.6,10.7,5.3,23.1,5.6,34.8q.45,18.3.3,36.6c-.2,24.4-1.1,48.7-2.8,73.1-.1,1.9,2.9,1.9,3,0,1.7-25.6,2.7-51.3,2.8-77,.1-12.5-.1-25-.4-37.6-.3-10.8-.7-21.6-5.9-31.4-.9-1.7-3.5-.2-2.6,1.5Z" fill="#e8e8e8"/><path d="M670.6,529.3c78.8-14.6,159.8-12.7,239.5-14a1.5,1.5,0,0,0,0-3c-80.1,1.3-161.3-.5-240.3,14.1-1.9.4-1.1,3.3.8,2.9Z" fill="#e8e8e8"/><path d="M690.5,387.4a97.971,97.971,0,0,0-11.4,9,1.572,1.572,0,0,0,.3,2.4c3.6,2.2,8.9,1.7,11.7,5,1.2,1.5,3.3-.6,2.1-2.1-3.1-3.8-8.4-3.1-12.3-5.5l.3,2.4a98.459,98.459,0,0,1,10.8-8.5c1.6-1.2.1-3.8-1.5-2.7Z" fill="#e8e8e8"/><path d="M707,385.9A117.837,117.837,0,0,0,696.6,405c-.8,1.8,1.8,3.3,2.6,1.5a113.792,113.792,0,0,1,10.4-19.1c1-1.6-1.6-3.1-2.6-1.5Z" fill="#e8e8e8"/><path d="M712.9,397.6a64.634,64.634,0,0,1,13.9-.3c1.9.2,1.9-2.8,0-3a64.5,64.5,0,0,0-13.9.3c-1.9.2-2,3.2,0,3Z" fill="#e8e8e8"/><path d="M730.2,386.8c3.6,5,10.2,5.4,14.3,9.7l.3-2.4a61.791,61.791,0,0,0-12,8.8c-1.4,1.3.7,3.4,2.1,2.1a61.531,61.531,0,0,1,11.4-8.3,1.512,1.512,0,0,0,.3-2.4c-3.9-4-10.6-4.5-13.9-9.1-1.1-1.4-3.7.1-2.5,1.6Z" fill="#e8e8e8"/><path d="M669.9,423.6l12.3-.9c1.9-.1,1.9-3.1,0-3l-12.3.9c-1.9.2-1.9,3.2,0,3Z" fill="#e8e8e8"/><path d="M691.8,422c27.7-1.6,55.4-3.3,83.1-4.9,1.9-.1,1.9-3.1,0-3-27.7,1.6-55.4,3.3-83.1,4.9-1.9.1-2,3.1,0,3Z" fill="#e8e8e8"/><path d="M671.5,435.6h6.8a1.5,1.5,0,0,0,0-3h-6.8a1.5,1.5,0,0,0,0,3Z" fill="#e8e8e8"/><path d="M686.6,434.4a23.966,23.966,0,0,0,8-.8,1.5,1.5,0,0,0-.8-2.9,21.752,21.752,0,0,1-7.2.6c-1.9,0-1.9,3,0,3.1Z" fill="#e8e8e8"/><path d="M711.2,432.3a581.232,581.232,0,0,1,79.2-2.1c1.9.1,1.9-2.9,0-3a582.086,582.086,0,0,0-79.2,2.1c-1.9.1-1.9,3.1,0,3Z" fill="#e8e8e8"/><path d="M675.2,450.6a63.1,63.1,0,0,1-5.5,6.1,1.512,1.512,0,0,0,.7,2.5,38.285,38.285,0,0,0,9.5,1.4,1.5,1.5,0,0,0,0-3,28.674,28.674,0,0,1-8.7-1.3,23.353,23.353,0,0,0,.7,2.5,53.151,53.151,0,0,0,5.5-6.1c1.1-1.5-1.1-3.7-2.2-2.1Z" fill="#e8e8e8"/><path d="M685.4,456.5a204.005,204.005,0,0,1,41.3-3.6,1.5,1.5,0,0,0,0-3,198.05,198.05,0,0,0-42.1,3.7c-1.8.4-1,3.2.8,2.9Z" fill="#e8e8e8"/><path d="M730.8,449c4.9,2.5,10.8.8,15.5,3.5a25.115,25.115,0,0,1,.4-2.7,27.933,27.933,0,0,0-7.7,3.9c-1.6,1.1-.1,3.7,1.5,2.6a28.958,28.958,0,0,1,7-3.6,1.509,1.509,0,0,0,.4-2.7c-4.8-2.9-10.6-1-15.5-3.5-1.8-1-3.3,1.6-1.6,2.5Z" fill="#e8e8e8"/><path d="M863.2,378.8a5.2,5.2,0,0,0-4.4,4.4,12.378,12.378,0,0,0,.5,4.7c1,4.4.4,6.6-3.6,9a1.517,1.517,0,0,0,.8,2.8c4.2-.1,2.7,19.3,11.6,12.8,1.6-1.1.1-3.7-1.5-2.6-4.1,2.9-3.8-6.6-4-7.6a9.643,9.643,0,0,0-1-3,5.215,5.215,0,0,0-5.1-2.6c.3.9.5,1.9.8,2.8,2.3-1.4,4.7-3,5.6-5.7.8-2.4-2.6-11.4,1.2-12.1,1.8-.3,1-3.2-.9-2.9Z" fill="#e8e8e8"/><path d="M882.7,380c3.4-.5,4.7,1.5,4.1,6.2-.3.6-.6,1.1-.9,1.7a12.662,12.662,0,0,0-.6,2.8c0,2.1,1.4,2.5,2.1,4.1.6,1.5-.1,1.3-.3,3.2-.6,4,4.9,7.3-.3,10.9-1.6,1.1-.1,3.7,1.5,2.6a7.874,7.874,0,0,0,3.8-6.5,10.89,10.89,0,0,0-.8-3.1,11.785,11.785,0,0,1,.5-6.7,1.674,1.674,0,0,0-.4-1.5,13.45,13.45,0,0,1-1.4-1.1c-2.4-2.4-.8-3.6.3-6.3.6-1.6,1.1-2.9.6-4.6-.9-3.6-4.7-4.8-8-4.7-2.1,0-2.1,3-.2,3Z" fill="#e8e8e8"/><path d="M773.3,396c15.8-1.3,31.5-2.5,47.3-3.8,1.9-.2,1.9-3.2,0-3-15.8,1.3-31.5,2.5-47.3,3.8-1.9.1-1.9,3.1,0,3Z" fill="#e8e8e8"/><path d="M841.3,391.2A34.859,34.859,0,0,0,852,391c1.9-.3,1.1-3.2-.8-2.9a36.475,36.475,0,0,1-9.9.1c-1.9-.3-1.9,2.7,0,3Z" fill="#e8e8e8"/><path d="M681,477.3c26.5-1.7,53-3.5,79.5-5.2,1.9-.1,1.9-3.1,0-3-26.5,1.7-53,3.5-79.5,5.2-1.9.1-1.9,3.1,0,3Z" fill="#e8e8e8"/><path d="M777.7,470c10.1-1,20.1-1.9,30.2-2.8,1.9-.2,1.9-3.2,0-3-10.1.8-20.2,1.8-30.2,2.8-1.9.2-1.9,3.2,0,3Z" fill="#e8e8e8"/><path d="M830.6,466.1c19.7-2,39.5-3.5,59.2-4.4,1.9-.1,1.9-3.1,0-3-19.8,1-39.5,2.4-59.2,4.4-1.9.2-1.9,3.2,0,3Z" fill="#e8e8e8"/><path d="M692.8,487.2c-3.7,2.6-7.5,5.3-11.2,7.9a1.477,1.477,0,0,0,.4,2.7,117.421,117.421,0,0,0,11.8,2.4c1.9.3,2.7-2.6.8-2.9a117.417,117.417,0,0,1-11.8-2.4,25.115,25.115,0,0,0,.4,2.7c3.7-2.6,7.5-5.3,11.2-7.9,1.5-1.1,0-3.7-1.6-2.5Z" fill="#e8e8e8"/><path d="M708.1,485.5a141.919,141.919,0,0,0-11.9,15.8c-1.1,1.6,1.5,3.1,2.6,1.5a128.193,128.193,0,0,1,11.4-15.2c1.3-1.4-.8-3.6-2.1-2.1Z" fill="#e8e8e8"/><path d="M717,489.8a14.15,14.15,0,0,0,4.1,2c.9.3,1.8.5,2.7.8a7.145,7.145,0,0,1,1.5.8q-.15-1.05-.9-.6c-1.3-.1-3.8,1.5-5,2.1a36.122,36.122,0,0,0-5.3,3.3c-1.5,1.1,0,3.7,1.5,2.6a32.309,32.309,0,0,1,7.2-4.2c1.6-.7,5-1,5.5-3.1.4-1.8-1.6-2.8-2.9-3.4-2.3-1-4.9-1.3-7-2.8-1.4-1.2-2.9,1.4-1.4,2.5Z" fill="#e8e8e8"/><path d="M750.3,494c12.3-1,24.6-2.3,36.9-1.6,1.9.1,1.9-2.9,0-3-12.4-.7-24.6.6-36.9,1.6-2,.1-2,3.1,0,3Z" fill="#e8e8e8"/><path d="M813.9,489.5a505.349,505.349,0,0,1,69.6-3.2,1.5,1.5,0,0,0,0-3,522.336,522.336,0,0,0-69.6,3.2c-1.9.2-1.9,3.2,0,3Z" fill="#e8e8e8"/><path d="M985.5,436.1c-.5,5-1,10.1-1.4,15.1,28.9-.9,60.6-.6,94.6,1.6,30.1,2,58.2,5.2,83.9,9.2.6-6.3,1.1-12.6,1.7-18.9-11.6-2.3-26.9-5-44.9-7.5-23.1-3.2-40.7-4.6-50.3-5.3-24.3-1.7-36.7-2.5-53.2-.5A214.709,214.709,0,0,0,985.5,436.1Z" fill="#5222d0" opacity="0.16"/><path d="M379.7,474.1a168.115,168.115,0,0,0-9.2,38.2c-2.3,19.9-8.2,70.7,18.4,86.2,18.2,10.6,47.2,2.2,71.7-17.8,4.2,3.4,8.5,6.7,12.7,10.1l-74.7,45.3c17.6,10.5,35.2,20.9,52.7,31.4,19-11.3,37.9-22.5,56.9-33.8,9.6,4.7,19.2,9.5,28.7,14.2-19.9,14-39.7,28-59.6,42.1q-52.05-25.95-104-51.9-26.4-68.55-52.7-137.2C340.4,492.1,360.1,483.1,379.7,474.1Z" fill="#4c4c4c" opacity="0.12"/><path d="M484.9,633.5" fill="#4c4c4c"/><path d="M1106,422.6a112.51,112.51,0,0,1,7.1,24.1c.7,4.2,6.2,37.5-8.5,66.8-15.7,31.4-51.2,51.6-91.2,53.9a576.62,576.62,0,0,0,106.2,12.9c16.8.5,32.8.2,47.8-.7a343.739,343.739,0,0,0,9.2-61.1,352.657,352.657,0,0,0-5.4-85.5C1149.4,429.7,1127.7,426.1,1106,422.6Z" fill="#4c4c4c" opacity="0.08"/><path d="M858,355.8a86.577,86.577,0,0,1,9.7,28.8c4.5,30.2-9,54.3-18.3,70.5-28,48.5-74.7,71.8-95.5,80.7,43.4-.3,88-1.6,133.6-4.3,10.2-.6,20.3-1.2,30.4-1.9a402.27,402.27,0,0,0,2-168.3Q889,358.45,858,355.8Z" fill="#4c4c4c" opacity="0.09"/></g><g transform="translate(6304.977 5453.695)"><path d="M830,992.2q1.5,10.2,2.7,21.3c.9,8.5,1.4,16.7,1.8,24.5a14.568,14.568,0,0,0,4.5,5.1c3.6,2.5,7.5,2.5,11.7,2.4,12.2-.3,18.3-.4,21-.9,9.5-1.9,18.5-3.6,20.4-9.6,1.3-4-1.3-8.4-1.5-8.7-1.5-2.5-3.5-3.6-6.9-5.4a29.342,29.342,0,0,0-22.8-3c-1.3-10.6-2.6-21.2-3.9-31.7Z"/><path d="M811.9,794.3c-8.1,8.8-5.6,18.2-8.9,74.9-1.3,22.8-1.8,21.7-2.2,35.4a480.748,480.748,0,0,0,1.6,63.4c.7,7.9,1.6,14.5,2.2,19.1,5.9,3,16,7,28.4,5.7,7.3-.7,12.8-3.1,16.9-4.8a75.588,75.588,0,0,0,19.8-12.4q-2.55-94.65-5.1-189.3C829.3,779.6,816.6,789.2,811.9,794.3Z" fill="#fff"/><path d="M805,802.6a1137.148,1137.148,0,0,0-2.1,182.7c.1,1.9,3.1,1.9,3,0A1137.281,1137.281,0,0,1,808,802.6c.2-1.9-2.8-1.9-3,0Z" fill="#161616"/><path d="M804.4,988.2c22.2,11.5,47.7,4.9,65.5-11.4,1.4-1.3-.7-3.4-2.1-2.1-16.8,15.4-40.9,21.8-61.9,11-1.7-1-3.2,1.6-1.5,2.5Z" fill="#161616"/><path d="M862.3,788.9l4.8,185.4c.1,1.9,3.1,1.9,3,0l-4.8-185.4a1.5,1.5,0,0,0-3,0Z" fill="#161616"/><path d="M828.7,993.5a250.626,250.626,0,0,1,4.5,36.6c.1,1.9,3.1,1.9,3,0a246.563,246.563,0,0,0-4.6-37.4c-.4-1.9-3.3-1.1-2.9.8Z" fill="#161616"/><path d="M855.5,986c.6,13.1,1.8,26.1,3.6,39.1.3,1.9,3.2,1.1,2.9-.8a378.437,378.437,0,0,1-3.5-38.3c-.1-1.9-3.1-1.9-3,0Z" fill="#161616"/><path d="M860.6,1018.5a36.583,36.583,0,0,1,29.5,9.1c1.4,1.3,3.6-.8,2.1-2.1a39.417,39.417,0,0,0-31.6-10c-1.9.2-1.9,3.2,0,3Z" fill="#161616"/><path d="M833.2,1029c-.5,6.3-.2,13.9,6.5,16.8,2.6,1.1,5.9,1.2,8.7,1.4a115.45,115.45,0,0,0,14.4.4c11.5-.6,33.8-5.2,30.5-21.3-.4-1.9-3.3-1.1-2.9.8,2.9,14.2-19.9,17.3-29.4,17.6a98,98,0,0,1-15.3-.7c-9-1.1-10.1-7-9.5-14.9.1-2-2.9-2-3-.1Z" fill="#161616"/><path d="M807,802c9.8-3.5,19.6-7,29.4-10.4-1.7,32.5-2.1,68-.4,106,1.4,32.4,4.2,62.8,7.7,90.9a39.284,39.284,0,0,1-6.6,2.3c-13.8,3.6-26.1-1-32.1-3.9A986.022,986.022,0,0,1,801.9,877C802.7,850.5,804.5,825.5,807,802Z" fill="#4c4c4c" opacity="0.11"/><path d="M806.2,804c.4,17.5,1.5,40.2,3.9,66.5,1.9,20.9,4,36.5,4.6,41.4,2.9,21.1,7.3,48.5,14.7,80.5-8.4-1.9-16.8-3.9-25.1-5.8-1.5-32.1-2.2-66.1-1.5-101.8C803.2,856.7,804.4,829.7,806.2,804Z" fill="#4c4c4c" opacity="0.1"/><path d="M784.9,876.6c.6,3.1,1.4,7.6,2.4,13.2,5.9,35.6,5.8,61.2,6.4,82.8.5,18.4,1.7,44.7,5.1,77.4-2.1.9-5.3,2.4-9.1,4.4-9.4,4.9-22,11.5-33.8,23.7a100.5,100.5,0,0,0-13.2,16.9,333.73,333.73,0,0,0,122-10.8c-5.4-4.6-11.4-9.2-17.9-13.9a276.906,276.906,0,0,0-35.1-21c-2.4-23.3-4.3-47.8-5.4-73.3-1.7-39.4-1.5-76.5,0-110.9C799.1,869,792,872.8,784.9,876.6Z"/><path d="M710.9,828c0-4.6,5.3-8.5,15.9-16.2,5-3.7,18.8-13,41.9-18.3,20.3-4.6,35.9-3.3,54.8-1.7,26.9,2.3,39.3,7.7,42.6,9.1a100.13,100.13,0,0,1,22,13.5A56.346,56.346,0,0,1,875.9,837c-4.9,5.6-18.3,18.4-55.4,21.3C769,862.5,710.8,844.7,710.9,828Z" fill="#fff"/><path d="M713.9,822.2a52.533,52.533,0,0,0-3.4,9.5,61.091,61.091,0,0,0,.3,31.1,166.589,166.589,0,0,0,22.6,8.4c29.2,8.7,53,7.5,72.3,6.4,25.4-1.4,41.8-2.6,60.8-12.5a106.106,106.106,0,0,0,23.3-16.6c-.3-10.9-.7-21.9-1-32.8a154.7,154.7,0,0,1-28.4,14.9C798.4,855.4,737,832.4,713.9,822.2Z"/><path d="M709.2,829a92.536,92.536,0,0,0,.1,34c.4,1.9,3.2,1.1,2.9-.8a88.231,88.231,0,0,1-.1-32.4c.4-1.9-2.5-2.7-2.9-.8Z" fill="#161616"/><path d="M710.2,863c13.5,8.7,29.8,10.9,45.4,13.2,16.8,2.4,33.7,3.8,50.7,2.4,29.1-2.4,65-5.2,84.9-29.5,1.2-1.5-.9-3.6-2.1-2.1-9.4,11.5-22.9,18.1-37.1,21.8-15.4,4-31.7,5.8-47.6,6.9-16.7,1.2-33.4-.3-49.9-2.7-14.7-2.2-30.1-4.3-42.8-12.6-1.6-1-3.1,1.6-1.5,2.6Z" fill="#161616"/><path d="M887,816.2a121.747,121.747,0,0,1,1.7,31.3c-.1,1.9,2.9,1.9,3,0a127.792,127.792,0,0,0-1.8-32.1c-.3-1.9-3.2-1.1-2.9.8Z" fill="#161616"/><path d="M712,829.3c15.9-27.4,51.5-35.4,80.9-37.1a181.231,181.231,0,0,1,51.9,4.4,170.036,170.036,0,0,1,24,7.3c7.4,2.9,14.6,6.8,18.3,14.2.9,1.7,3.5.2,2.6-1.5-7.1-14-26.6-18.5-40.5-22a186.71,186.71,0,0,0-56.2-5.3c-30.4,1.8-66.9,10.2-83.4,38.6-1.2,1.5,1.4,3,2.4,1.4Z" fill="#161616"/><path d="M784.6,877.7q9.45,85.35,12.7,171.2c.1,1.9,3.1,1.9,3,0q-3.15-85.8-12.7-171.2c-.2-1.9-3.2-1.9-3,0Z" fill="#161616"/><path d="M803.6,877.7q.3,86.25,5.8,172.3c.1,1.9,3.1,1.9,3,0q-5.55-86.1-5.8-172.3c-.1-1.9-3.1-1.9-3,0Z" fill="#161616"/><path d="M797.1,1048a144.707,144.707,0,0,0-56.2,46.1,1.522,1.522,0,0,0,.9,2.2c20.7,3.4,41.6,1.7,62.3-.6,20.2-2.2,40.6-4.4,60.1-10.2,1-.3,1.6-1.8.7-2.5a254.6,254.6,0,0,0-52.9-34.2c-1.7-.8-3.3,1.8-1.5,2.6a248.4,248.4,0,0,1,52.3,33.7,23.353,23.353,0,0,1,.7-2.5c-19.3,5.8-39.4,7.9-59.3,10.1-20.4,2.3-41.1,4-61.5.7.3.7.6,1.5.9,2.2a141.114,141.114,0,0,1,55.1-45c1.6-.8.1-3.4-1.6-2.6Z" fill="#161616"/><path d="M694.6,783.1c2.3,9.1,4.7,18.2,7,27.3a198.909,198.909,0,0,0-30.9-7.3c-5.6-.8-29.3-4.4-30.9.6-.6,1.9,2.2,4.8,2.5,5.1,2.3,2.3,5.1,2.5,7.6,3.1,5.1,1.1,6.8,3,12.1,5.6,8,4,25.3,10.3,44.7,13.8a181.05,181.05,0,0,0,25.6,2.8c-4.1-17.9-8.3-35.8-12.4-53.7C711.5,781.2,703,782.1,694.6,783.1Z"/><path d="M690.7,532.6c-4.5,1.8-8,5.4-13.6,16.3-9,17.4-11.8,29.8-11.8,29.8-8.4,37.3-12.5,56-14,70.5-4.6,46,3,48,2.7,96.3,0,3.6-.1,11.4,4.5,19,7.3,11.9,21.4,15.3,25.3,16.3,11.5,2.8,22.4.8,31.7-.9,2.6-.5,4.8-1,6.3-1.4a133.117,133.117,0,0,0,18.5,12.2c9.1,4.9,17,9.2,28,10.4a85.911,85.911,0,0,0,16.3,0,105.434,105.434,0,0,0,12.2-1.8,69.92,69.92,0,0,0,20.8,3.6c5.6.1,24,.2,40.2-11.8,14.5-10.7,19.5-25.1,23.1-35.7,3.4-10.2,16.4-48.9-3.2-69.6-17-18-49.3-12.8-75.1-8.6a165.786,165.786,0,0,0-29.8,7.7c-11.9-30.8-20.7-55.1-26.7-71.9-5.7-15.9-14-30.9-19-47-4.5-14.4-6.9-25.9-17.2-31.7C709.2,533.9,699.8,528.9,690.7,532.6Z" fill="#fff"/><path d="M794.8,801.7c26.5,6.1,56.9,2.1,75.1-20.1,9.1-11.1,12-24.9,14.5-38.7,2.5-14.3,3.9-28.9-.7-42.9-.6-1.8-3.5-1-2.9.8,4.5,13.5,3.2,27.6.7,41.3-2.3,13.2-5,26.7-13.7,37.4-17.4,21.4-46.7,25.1-72.2,19.3a1.5,1.5,0,0,0-.8,2.9Z" fill="#161616"/><path d="M735.1,585c-1.4-13.4-4.9-27.2-11.6-39-5-8.7-13-17-23.8-16.5-11.4.5-19.8,9.7-24.5,19.2-6.4,12.6-10.4,26.9-14.1,40.4a365.684,365.684,0,0,0-12.8,85.1,387.5,387.5,0,0,0,1.2,45.7c1.2,13.7,2.2,28.6,6.1,41.8,3.3,11.3,18.4,18,28.9,20.7a57.518,57.518,0,0,0,37.5-3.1c1.8-.8.2-3.4-1.5-2.6a54.471,54.471,0,0,1-33.8,3.2c-9.9-2.2-25-8.3-28.2-18.9-1.7-5.7-2.3-11.9-3.2-17.8-1.1-7.1-1.9-14.2-2.6-21.4-1.1-12.1-1.7-24.3-1.6-36.5a364.27,364.27,0,0,1,8.2-75.8,360.4,360.4,0,0,1,9.5-35.3c3.8-11.6,7.4-25.3,16.1-34.3,4.9-5,11.9-8.5,19-7.2,6.8,1.3,12,6.6,15.6,12.2,7.6,11.6,11.3,26.3,12.8,40,0,2,3,2.1,2.8.1Z" fill="#161616"/><path d="M682.9,614.8a281.634,281.634,0,0,0,11.2,108.7c5.2,16.8,11.3,35.4,21.9,49.7,9.4,12.7,24.1,21.1,39,25.8,17.2,5.5,36.1,5.8,52.4-2.5,1.7-.9.2-3.5-1.5-2.6-14.9,7.6-32,7.6-47.7,3-16.1-4.7-32.2-13.9-41.6-28.1-9.2-14-15-30.9-19.8-46.9a275.249,275.249,0,0,1-10.4-50.1,284.747,284.747,0,0,1-.5-56.9c.2-2-2.8-2-3-.1Z" fill="#161616"/><path d="M676.4,604.2a187.524,187.524,0,0,0,5.8,38.7,1.5,1.5,0,0,0,2.9-.8,173.647,173.647,0,0,1-5.7-37.9c-.1-1.9-3.1-1.9-3,0Z" fill="#161616"/><path d="M733,585.2q28.35,67.65,50.1,138c.6,1.8,3.5,1.1,2.9-.8q-21.6-70.2-50.1-138c-.8-1.7-3.7-.9-2.9.8Z" fill="#161616"/><path d="M692.8,784.5c2.6,9,5.2,18,7.8,27.1a1.5,1.5,0,0,0,2.9-.8c-2.6-9-5.2-18-7.8-27.1-.6-1.8-3.5-1-2.9.8Z" fill="#161616"/><path d="M701.8,809.8a126.116,126.116,0,0,0-62.9-7.8c-.8.1-1.9.9-1.4,1.9,2.6,6.4,9.9,8.3,15.7,10.8,8.3,3.6,16.6,7.1,25.1,10.1,17,6.1,34.7,10.3,52.8,9.8a1.5,1.5,0,0,0,0-3c-16,.4-31.7-2.8-46.8-7.9-7.3-2.4-14.4-5.2-21.5-8.2-3.8-1.6-7.7-3.2-11.5-4.9-3.9-1.7-9.2-3.3-11-7.6a23.065,23.065,0,0,0-1.4,1.9,124.222,124.222,0,0,1,62.1,7.7c1.8.8,2.5-2.1.8-2.8Z" fill="#161616"/><path d="M718,779.1c2.1,18.5,10.9,35.5,12.2,54.1.1,1.9,3.1,1.9,3,0-1.3-18.6-10.1-35.6-12.2-54.1-.2-1.9-3.2-1.9-3,0Z" fill="#161616"/><path d="M688.6,780c-3.4-8.7-8.1-21.7-12.6-37.7-1.9-6.9-14.1-52-11.5-110.4.7-15.3,2.4-32.2,14.6-44.5,4.7-4.7,10-10,14.6-8.9,19.2,4.5-15.3,106.5,33,161.6,24.8,28.3,60.6,31.9,66.4,32.4,51.4,4.6,86.1-32.3,90.5-37.1a63.96,63.96,0,0,1-4.2,26.2A66.546,66.546,0,0,1,852.2,794c-24.9,15.2-51,8.1-55.4,6.8a90.963,90.963,0,0,1-27.7,0c-24.6-3.8-41.2-16.8-48.6-23.5a39.42,39.42,0,0,1-16.7,4.7A37.778,37.778,0,0,1,688.6,780Z" fill="#4c4c4c" opacity="0.1"/><path d="M680.2,603.2c1.3-.1,1.8,11.7,8.4,50.2,7.7,45.5,11.6,68.2,17.3,81.1,7.2,16.4,25.8,45.8,81.6,67.5a94.4,94.4,0,0,1-66.9-24.1c-6.3,1.4-12.6,2.8-18.8,4.2a449.814,449.814,0,0,1-12.6-45.5C673.6,666.5,677.3,603.4,680.2,603.2Z" fill="#4c4c4c" opacity="0.13"/><path d="M548.1,562.6c-.5,2.1,2.6,4.9,5.1,6.1a10.236,10.236,0,0,0,8.6,0,31.8,31.8,0,0,1,17.7,4c2.6,1.5,5,4.7,9.6,11.1,8.5,11.6,9.6,15.5,15.2,19.2a26.029,26.029,0,0,0,10.1,4c2.4,2.7,6.1,6.9,10.6,12.1,16.1,18.8,17.2,22.2,24.8,28.8,8.2,7.2,18.1,16,29.8,14.7,6.2-.7,11.2-4.1,19.2-12.1,16.6-16.7,28.1-35.1,38.4-56.1,11.1-22.6,13.6-33.6,14.7-38.9.6-3.3,6.5-33.1-2-36.9-3.3-1.5-7.6,1.4-14.1,6.6a211.78,211.78,0,0,0-38.4,39.9,323.6,323.6,0,0,0-25.8,44.5l-42.9-22.2a20.132,20.132,0,0,1-2-8.6c0-6.1,3.1-8.4,5.1-15.2,2.1-7,2.4-16.6-1-18.2-2.4-1.1-7,1.6-9.1,5.1-2.2,3.6-.9,6.8-3,8.1-2.7,1.7-7.6-1.7-8.1-2-5.4-3.8-4.9-8.5-9.1-16.2-4.5-8.3-10.5-12.9-14.1-15.7-5-3.8-10.6-8.1-16.2-6.6-.9.2-4.6,1.3-5.9,4.6a7.013,7.013,0,0,0-.2,4,9.267,9.267,0,0,0-8-1,8.765,8.765,0,0,0-5.6,6.6,7.946,7.946,0,0,0,.2,3.2c-.5-.2-4.8-1.3-7.8,1.3a5.548,5.548,0,0,0-2.2,4c0,1.7,1.2,3.1,3.3,4.8,4.5,3.7,7.9,4.6,12.1,6.9a40.736,40.736,0,0,1,8.1,5.9C559.7,558.4,548.9,558.9,548.1,562.6Z" fill="#fff"/><path d="M672.8,610.1c17.5-34.1,36.8-70.6,72.7-88.5,1.7-.9.2-3.4-1.5-2.6-36.3,18-56,55-73.7,89.5-1,1.8,1.6,3.3,2.5,1.6Z" fill="#161616"/><path d="M628.7,589.3c15.4,10.3,34.6,14.6,47.8,28.1a1.485,1.485,0,1,0,2.1-2.1c-13.4-13.7-32.8-18.1-48.4-28.6-1.6-1.1-3.1,1.5-1.5,2.6Z" fill="#161616"/><path d="M616.2,609.1a153.3,153.3,0,0,0,26.9,34.1c9.4,8.9,21.7,20.3,35.5,20.6,12.6.3,21.2-10.2,27.9-19.5,10-13.9,19.2-28.3,27.8-43.1,8.8-15.1,18.1-31.1,18.5-49a1.5,1.5,0,0,0-3,0c-.4,19.2-11.4,36.4-21,52.4-9.2,15.5-18.7,32-30.6,45.5-5.5,6.3-12.6,11.5-21.3,10.6-9.7-1-18.3-8-25.5-14.1a151.269,151.269,0,0,1-32.7-39c-.9-1.7-3.5-.2-2.5,1.5Z" fill="#161616"/><path d="M618.9,607.2c-4-1.9-8.6-2.5-12.5-4.7-4-2.3-6.8-6.2-9.4-10-4.6-6.8-8.8-13.9-15.3-19.1a28.279,28.279,0,0,0-10.3-5.4c-4.2-1.2-8-.5-12.3-.3-2.7.1-8.3.2-8.5-3.9-.3-4,5.3-3.4,7.6-3.5,5.1-.3,10,0,14.7,2,1.8.7,2.6-2.2.8-2.9-5.6-2.3-11.3-2.4-17.3-2-2.9.2-6.7.2-8.3,3.1-1.4,2.5-.3,5.7,1.6,7.7,3.2,3.4,8,2.7,12.2,2.3,15-1.5,23.9,10.5,31.3,21.8,2.6,4,5.3,8,9,11,4.5,3.6,10.1,4.1,15.1,6.6,1.8.7,3.4-1.9,1.6-2.7Z" fill="#161616"/><path d="M630.9,587.9c-5.4-6.3-.4-16.1,1.5-22.9,1.4-4.9,3.4-11.7.8-16.6-1.5-2.9-4.8-4.7-8-3.5a8.9,8.9,0,0,0-4.2,3.7c-1.4,2.3-1.8,8.6-4.6,9.3-1.9.4-1.1,3.3.8,2.9,3.4-.8,4.1-4.2,5.1-7.1.5-1.5,1.5-5.4,3.4-5.7l5.4,3a23.345,23.345,0,0,0,.4,2.6c.2,3.6-.9,7.3-1.8,10.7-2.4,8.1-7.1,18.3-.8,25.8,1.1,1.4,3.2-.8,2-2.2Z" fill="#161616"/><path d="M549.7,547a21.219,21.219,0,0,1-4.3-2.8c-1.7-.9-2-2.2-.9-3.8-.1-2.3,1.1-3.1,3.5-2.7,4.5-.3,8.4,1.9,12.3,3.7,6.7,3.2,13.1,6.6,18.7,11.5,1.4,1.3,3.6-.8,2.1-2.1a74.957,74.957,0,0,0-16.2-10.5c-5.5-2.8-11.4-6.3-17.8-5.6-3.3.4-7.2,1.6-7.1,5.5.1,4.5,4.7,7.3,8.1,9.3,1.7,1,3.2-1.6,1.6-2.5Z" fill="#161616"/><path d="M553.6,534.9c-5.3-4,1.6-6.7,3.7-7.1a13.223,13.223,0,0,1,5.9.8,38.665,38.665,0,0,1,8.9,4.9A100.058,100.058,0,0,1,587,546.2a1.485,1.485,0,1,0,2.1-2.1c-7.5-7.6-18.3-18.4-29.6-19.4-7.1-.6-14.8,7.1-7.4,12.7,1.5,1.3,3-1.3,1.5-2.5Z" fill="#161616"/><path d="M566.6,525.9c-3.6-4.5,4.5-6.1,6.9-5.7,1,.2,1.9.5,2.9.8a29,29,0,0,1,8.7,5,69.574,69.574,0,0,1,12.2,13.2c1.2,1.5,3.8,0,2.6-1.5-6.3-8.3-13.7-17-24.2-20-3.5-1-8.1-1.3-10.9,1.6a6.258,6.258,0,0,0-.3,8.7c1.2,1.5,3.3-.6,2.1-2.1Z" fill="#161616"/><path d="M596.3,537.1c3.7,6.3,7,13,11.2,19,2.6,3.7,6.4,6.4,11,4.5,1.8-.7,1-3.6-.8-2.9-6.1,2.4-9.3-6-11.7-10.1-2.4-4-4.7-8.1-7.1-12.1-.9-1.6-3.5-.1-2.6,1.6Z" fill="#161616"/><path d="M547.2,548.4c5.6,3.7,11.3,7.3,16.9,11,1.6,1.1,3.1-1.5,1.5-2.6-5.6-3.7-11.3-7.3-16.9-11-1.6-1-3.1,1.6-1.5,2.6Z" fill="#161616"/><path d="M544.2,538.5c4-1.9,10.1,3.4,13.9,6.5,18.5,15.1,19.4,9.8,30,20.7,10.8,11,10.5,17,21.3,23.6a47.07,47.07,0,0,0,13.2,5.5c1.9,2.7,4.7,6.7,8.4,11.3,13.3,16.7,20.2,25.4,31,29.4.9.3,18.2,6.5,32.6-1.9,11.5-6.7,11.5-17.4,24.9-52.3,16.9-44,23.7-49.5,28.1-49.1,2.6.2,5,2.6,6.1,4.5,2.3,3.9.5,8.1-1.9,17.8-2.3,9.2-1.8,9.6-3.2,15.2-3.9,14.8-10.9,23-30.7,56.5A142.457,142.457,0,0,1,703,647.5c-6.3,7.4-10.3,11.8-16.5,13.9-10.4,3.5-20.6-1.9-25.5-4.5-6.6-3.5-11.3-7.8-18.7-16.5a283.519,283.519,0,0,1-24.9-33.9,24.074,24.074,0,0,1-9-1.9c-3.1-1.4-7.1-3.9-16.8-17.8-6.9-9.9-6.8-11.3-10.3-13.6-5.5-3.6-12.3-4.2-15.8-4.5-8.1-.8-12.4.9-14.5-1.9a5.722,5.722,0,0,1,0-6.5c3.4-4.2,15,1,15.5-.3.3-.9-4.3-3.3-12.3-8.1-9.5-5.7-12.5-7.9-12.3-10.3A3.808,3.808,0,0,1,544.2,538.5Z" fill="#4c4c4c" opacity="0.12"/><path d="M872.5,500.4c-5.4,1.1-7.5,11.2-9.6,20.7a120.765,120.765,0,0,0-2.5,30.3c.7,21.5,5.3,42,11.1,54.1,3.1,6.5,5,7.3,8.6,15.7,1.2,2.8,2.1,5.2,4.5,7.1,4.6,3.5,10.6,2.2,11.1,2,6.2-1.5,9.5-6.9,11.1-9.6,4.5-7.7,4.6-15.6,3.5-29.3-1.6-20.7-2.4-31-5.6-41.9a115.914,115.914,0,0,0-16.2-34.4C883.3,507.3,877.7,499.4,872.5,500.4Z" fill="#fff"/><path d="M872.6,503.1c5.4-.6,9.3,6,12.1,9.9,2.5,3.5,4.8,7.2,7,10.9a126.155,126.155,0,0,1,10.4,24.2,165.516,165.516,0,0,1,7.2,51.4c-.1,9,0,20.8-7.6,27.2-3.5,2.9-8.8,4.7-13.1,2.6-4.5-2.2-7.1-8.2-9.4-12.3a142.285,142.285,0,0,1-17-53.9c-2.2-20.5-.7-43,10.6-60.7,1-1.6-1.6-3.1-2.6-1.5-11.6,18.2-13.2,41.3-11,62.2a141.46,141.46,0,0,0,21,61.4c4.3,6.7,10.3,10.7,18.3,7.6,8.3-3.2,12-11.5,13.1-19.8,2.8-19.6.1-41.3-5.2-60.3a136.394,136.394,0,0,0-13.3-31.8,118.474,118.474,0,0,0-9.4-13.7c-2.9-3.6-6.1-7-11-6.5-2,.3-2,3.3-.1,3.1Z" fill="#161616"/><path d="M875.7,503a145.487,145.487,0,0,0-2.3,43.6c1.6,15.5,5.4,26.9,10.3,41.7A322.764,322.764,0,0,0,900.5,629a13.909,13.909,0,0,1-9,2.3c-7.3-1.1-11.6-9.6-14.5-16.2-10.6-23.6-15.9-35.4-16.8-55.6-1.3-27.7,6.1-58.4,12.6-58.5C874,501,875,502.1,875.7,503Z" fill="#4c4c4c" opacity="0.11"/><path d="M735.1,520.1c-.5,4.3-1,10.4-1.5,17.7-.4,5.5-1.4,21.6-1,36.9.9,30.2,7.5,54.2,11.6,68.7,3.7,13,7.6,23.7,10.6,31.3a56.91,56.91,0,0,0,2.5,11.6c7.2,21.6,25.8,32.3,30.3,34.9,22.5,12.6,44.9,8,51.5,6.6,6.6-1.5,27.9-6.4,41.9-25.3,4.6-6.1,8.7-14.1,12.6-35.4,1.8-9.9,6-35.9,3-80.3-3.1-45.2-10.4-62.2-14.7-70.7a133.781,133.781,0,0,0-10.6-17.7,119.065,119.065,0,0,0-53.6-9.1c-18.3,1.2-32.3,6.7-46,12.1A225.319,225.319,0,0,0,735.1,520.1Z" fill="#ec615b"/><path d="M733,522.8a281.319,281.319,0,0,0,22.6,155.4c.8,1.8,3.4.2,2.6-1.5a276.892,276.892,0,0,1-22.3-153.1c.2-1.9-2.7-2.7-2.9-.8Z" fill="#ec615b"/><path d="M751.5,670.8c3.6,25.1,21.7,46.8,45.5,55.5,25.4,9.3,55.9,3.8,76.2-14,10.6-9.2,17.9-21.6,19.3-35.7.2-1.9-2.8-1.9-3,0-3.3,33.7-40.6,52.8-71.4,50.9-31.8-1.9-59.2-25.8-63.7-57.6-.3-1.8-3.2-1-2.9.9Z" fill="#ec615b"/><path d="M734.8,522.8c39.7-25,89.4-42.7,135.1-23,1.8.8,3.3-1.8,1.5-2.6-46.8-20.2-97.4-2.7-138.2,23-1.5,1.1,0,3.7,1.6,2.6Z" fill="#ec615b"/><path d="M869.9,499.5c10.8,9.9,15,26.5,18.1,40.4a343.442,343.442,0,0,1,6.7,46.4c2.6,30.9,1.7,62.1-4.5,92.6-.4,1.9,2.5,2.7,2.9.8,6.6-32,7.4-64.7,4.3-97.2-1.5-15.7-3.5-31.6-7.3-47-3.3-13.2-7.7-28.6-18-38.1-1.5-1.3-3.6.8-2.2,2.1Z" fill="#ec615b"/><path d="M769.2,687.6a81.19,81.19,0,0,0,45,20.8c1.9.2,1.9-2.8,0-3a77.056,77.056,0,0,1-42.9-20c-1.4-1.2-3.6.9-2.1,2.2Z" fill="#ec615b"/><path d="M814.5,490.5c3.7,5.8,7.5,11.7,11.2,17.5a380.421,380.421,0,0,1,23.1,80.2c2.9,17.1,5.7,33.1,4.7,53.1-.9,18-5.5,50.6-28.7,88.3a72.544,72.544,0,0,0,20.9-3.4c3.5-1.1,29.3-9.8,41.8-34.3,5.2-10.2,6.1-19.3,6.9-30.3,4.2-59,.3-97.1-1.9-110.2-1.8-10.8-4.4-23.3-11.5-37.5a111.46,111.46,0,0,0-10.3-16.5,99.437,99.437,0,0,0-56.2-6.9Z" opacity="0.11"/><path d="M882.9,522.1c-3.6.2-5.4,21.9-6.6,36.5a451.221,451.221,0,0,0-.3,66.2c1.1,23.4-4.4,57.2-34,101.7a81.627,81.627,0,0,0,19.4-7.8c6.6-3.7,16-9,22.8-20a52.412,52.412,0,0,0,7.2-20.6,371.246,371.246,0,0,0,5.3-76.5C895.2,564,887.9,521.8,882.9,522.1Z" fill="#ec615b" opacity="0.11"/><path d="M738.2,596.6c5.6,81.5.9,163.2-3.8,244.6-.2,3.9,5.8,3.8,6,0,4.8-81.4,9.4-163.1,3.8-244.6-.3-3.9-6.3-3.9-6,0Z"/><path d="M740.3,592.9a930.61,930.61,0,0,0,96.6-1.1c26.3-1.6,51-4.3,73.9-7.6-.5,25.4-1.1,50.7-1.6,76.1a614.84,614.84,0,0,1-87.4,10.8A611.494,611.494,0,0,1,743,670Z" stroke="#000" stroke-miterlimit="10" stroke-width="2"/><path d="M906.2,601q-11.1,115.2-22.1,230.4c-.4,3.8,5.6,3.8,6,0Q901.2,716.2,912.2,601c.4-3.8-5.6-3.8-6,0Z"/><path d="M725.8,432.8c-.7,2,0,5.9.8,10.9a69.056,69.056,0,0,0,2.2,8.9,105.648,105.648,0,0,0,6.1,15.6,102.452,102.452,0,0,0,18.4,26.2,103.514,103.514,0,0,0,10.9,9.5c8.7-3.5,17.4-7.1,26.2-10.6a35.028,35.028,0,0,0,11.1-13.4c5.8-12.5,2.7-26.2-1.9-34.2C783.5,417.6,729.3,423,725.8,432.8Z" fill="#fff"/><path d="M724.2,440.9a122.642,122.642,0,0,0,26.7,54.3c3.7,4.4,7.6,8.7,13.5,10.1,1.9.4,2.7-2.5.8-2.9-6.2-1.4-10.4-7.1-14.3-11.9a115.822,115.822,0,0,1-10.6-15.6,121.375,121.375,0,0,1-13.2-34.8c-.4-1.8-3.3-1-2.9.8Z" fill="#161616"/><path d="M746.8,465.5c-.4-8.7,10-6,13.4-1.5,4,5.2,2.9,16.4-5.9,14.9-1.9-.3-2.7,2.6-.8,2.9,11.3,1.9,15.1-11.9,9.1-19.7-5.2-6.8-19.4-8.3-18.8,3.3.1,2,3.1,2,3,.1Z" fill="#161616"/><path d="M724.7,438.7c-1.3-4.6-3.5-12,.4-19.3a21.355,21.355,0,0,1,11.7-9.6,21.2,21.2,0,0,1,20.9-22.5,39.827,39.827,0,0,1,29.8-8c12.8,1.9,15,9.6,29.3,15.7a63.16,63.16,0,0,0,22.9,4.8c-2.5,2.9-5.1,5.9-7.6,8.8a34.511,34.511,0,0,1,6.4,10c1,2.3,2.8,7.6,2.4,17.7-.4,9.8-2.8,17.7-4.8,24.5-3.6,11.8-5.7,15.3-3.6,20.1,2.3,5.4,7.8,6.9,7.1,9.2-.8,2.5-7.8,2.8-12.7,2.2-7.3-.9-11.9-4.1-12.7-3-1,1.3,5.9,5.9,4.8,8.9-1.3,3.9-14.4,3.3-23.8,1.1a57.592,57.592,0,0,1-15.4-6.1,61.233,61.233,0,0,1-17.3-14.5c2.5-5.6,2.2-11.8-1.2-16.1-.3-.4-5.3-6.5-11.3-4.8a10.229,10.229,0,0,0-5.6,4.8C740.1,460.2,728.8,452.7,724.7,438.7Z" fill="#000309"/><path d="M737,410.5c2.1,6.3,15.8,5.1,26,8.5,7.3,2.4,17,8.7,25.7,26.1-2.4-7.8-13.5-40-39.9-47.2a39.865,39.865,0,0,0-8.3-1.4,16.571,16.571,0,0,0-3.6,7.9C736.9,404.9,736.3,408.3,737,410.5Z" fill="#fff" opacity="0.24"/><path d="M758.3,386.7a34.6,34.6,0,0,1,7.7-4.6,37,37,0,0,1,6.9-2.1,83.786,83.786,0,0,0,66.4,19.9,25.011,25.011,0,0,1-7.4,8.5c-13.9,9.9-34.7,1.4-44.6-2.6A90.143,90.143,0,0,1,758.3,386.7Z" fill="#fff" opacity="0.2"/><path d="M807.5,455.5c-1.6.5.5,11.8,1.2,15.2a75.5,75.5,0,0,0,6.2,18.3c3.2,1,6.4,2.1,9.5,3.1C812.6,461.4,808.8,455.1,807.5,455.5Z" fill="#4c4c4c" opacity="0.14"/><path d="M760.2,467.6c.3,2.5.5,4.8-.8,6.7-1.6,2.3-4.1,1.9-6.3,5.2-.8,1.2-.8,1.8-.6,2.1.5.9,2.6.5,3.6.5,5.2.2,8.3,5.5,11.9,8.6,2.9,2.6,7.9,5.3,16.9,5.5a92.453,92.453,0,0,1-14.7-9.9,91.368,91.368,0,0,1-7.7-7.2c1-2.2,2.8-7.1.9-12.1-1.4-3.8-4.6-6.5-5-6.2C757.9,461.1,759.7,463.4,760.2,467.6Z" fill="#4c4c4c" opacity="0.12"/></g></g></svg>